<svg width="700" height="300" viewBox="0 0 700 300" fill="none" xmlns="http://www.w3.org/2000/svg">
<g clip-path="url(#clip0_21_3)">
<rect width="700" height="300" fill="#102749"/>
<path d="M67.9375 56.125C67.9375 56.65 68.025 57.0333 68.2 57.275C68.375 57.5167 68.6458 57.6958 69.0125 57.8125L68.5 59.2875C67.9333 59.2125 67.4375 59.0333 67.0125 58.75C66.5875 58.4583 66.2792 58.0208 66.0875 57.4375C65.6125 58.0458 65.0208 58.5083 64.3125 58.825C63.6042 59.1333 62.8208 59.2875 61.9625 59.2875C60.6458 59.2875 59.6083 58.9167 58.85 58.175C58.0917 57.4333 57.7125 56.45 57.7125 55.225C57.7125 53.8667 58.2417 52.825 59.3 52.1C60.3583 51.375 61.8875 51.0125 63.8875 51.0125H65.825V49.9125C65.825 48.9625 65.5458 48.2917 64.9875 47.9C64.4375 47.5 63.6708 47.3 62.6875 47.3C62.2542 47.3 61.7458 47.3542 61.1625 47.4625C60.5792 47.5625 59.9458 47.7333 59.2625 47.975L58.7125 46.3875C59.5208 46.0875 60.2792 45.875 60.9875 45.75C61.6958 45.625 62.3708 45.5625 63.0125 45.5625C64.6542 45.5625 65.8833 45.9458 66.7 46.7125C67.525 47.4708 67.9375 48.5042 67.9375 49.8125V56.125ZM62.5 57.6875C63.15 57.6875 63.7708 57.525 64.3625 57.2C64.9542 56.8667 65.4417 56.4083 65.825 55.825V52.4375H63.925C62.475 52.4375 61.45 52.6875 60.85 53.1875C60.2583 53.6875 59.9625 54.3583 59.9625 55.2C59.9625 56.0167 60.1708 56.6375 60.5875 57.0625C61.0125 57.4792 61.65 57.6875 62.5 57.6875ZM73.5027 59V45.8375H75.2902L75.4527 47.6625C75.9861 46.9875 76.6527 46.4708 77.4527 46.1125C78.2611 45.7458 79.0444 45.5625 79.8027 45.5625C81.0944 45.5625 82.0319 45.9042 82.6152 46.5875C83.2069 47.2708 83.5027 48.2208 83.5027 49.4375V59H81.4027V50.9875C81.4027 50.0875 81.3527 49.3625 81.2527 48.8125C81.1527 48.2542 80.9444 47.85 80.6277 47.6C80.3111 47.3417 79.8194 47.2125 79.1527 47.2125C78.6361 47.2125 78.1486 47.325 77.6902 47.55C77.2402 47.775 76.8361 48.0583 76.4777 48.4C76.1277 48.7333 75.8361 49.0708 75.6027 49.4125V59H73.5027ZM99.193 44.4375L99.843 46.4125C99.2846 46.5875 98.6888 46.6958 98.0555 46.7375C97.4221 46.7792 96.7346 46.8 95.993 46.8C96.7513 47.15 97.3221 47.6042 97.7055 48.1625C98.0888 48.7125 98.2805 49.3625 98.2805 50.1125C98.2805 50.9792 98.0846 51.75 97.693 52.425C97.3013 53.1 96.7346 53.6292 95.993 54.0125C95.2596 54.3958 94.3721 54.5875 93.3305 54.5875C92.8888 54.5875 92.518 54.5667 92.218 54.525C91.9263 54.4833 91.643 54.4208 91.368 54.3375C91.168 54.4708 91.0013 54.6542 90.868 54.8875C90.743 55.1208 90.6805 55.3625 90.6805 55.6125C90.6805 55.9292 90.8055 56.1917 91.0555 56.4C91.3055 56.6083 91.768 56.7125 92.443 56.7125H94.818C95.7013 56.7125 96.493 56.8708 97.193 57.1875C97.9013 57.5042 98.4555 57.9292 98.8555 58.4625C99.2638 58.9958 99.468 59.6042 99.468 60.2875C99.468 61.5792 98.918 62.5708 97.818 63.2625C96.7263 63.9542 95.1805 64.3 93.1805 64.3C91.7805 64.3 90.6763 64.1542 89.868 63.8625C89.0596 63.5792 88.4805 63.1417 88.1305 62.55C87.7888 61.9667 87.618 61.2292 87.618 60.3375H89.518C89.518 60.8458 89.618 61.2667 89.818 61.6C90.018 61.9333 90.3805 62.1792 90.9055 62.3375C91.4305 62.5042 92.1846 62.5875 93.168 62.5875C94.1346 62.5875 94.9221 62.5042 95.5305 62.3375C96.1471 62.1792 96.6013 61.9375 96.893 61.6125C97.193 61.2958 97.343 60.9 97.343 60.425C97.343 59.8 97.0596 59.3292 96.493 59.0125C95.9263 58.6958 95.218 58.5375 94.368 58.5375H92.018C90.8846 58.5375 90.0471 58.2875 89.5055 57.7875C88.9721 57.2875 88.7055 56.7125 88.7055 56.0625C88.7055 55.6375 88.8263 55.225 89.068 54.825C89.318 54.425 89.6805 54.0708 90.1555 53.7625C89.3971 53.3625 88.8388 52.8667 88.4805 52.275C88.1221 51.6833 87.943 50.9667 87.943 50.125C87.943 49.2333 88.1638 48.4458 88.6055 47.7625C89.0471 47.0708 89.6638 46.5292 90.4555 46.1375C91.2471 45.7458 92.1596 45.55 93.193 45.55C94.3013 45.5417 95.2013 45.4958 95.893 45.4125C96.5846 45.3208 97.1763 45.1917 97.668 45.025C98.168 44.8583 98.6763 44.6625 99.193 44.4375ZM93.193 47.0875C92.1346 47.0875 91.3513 47.375 90.843 47.95C90.343 48.5167 90.093 49.2417 90.093 50.125C90.093 51.0167 90.3513 51.75 90.868 52.325C91.3846 52.9 92.1763 53.1875 93.243 53.1875C94.1763 53.1875 94.8846 52.9167 95.368 52.375C95.8596 51.8333 96.1055 51.0792 96.1055 50.1125C96.1055 49.1208 95.8596 48.3708 95.368 47.8625C94.8846 47.3458 94.1596 47.0875 93.193 47.0875ZM114.508 45.8375L108.583 51.7625L115.196 59H112.433L105.958 51.8125L111.783 45.8375H114.508ZM105.721 40.275V59H103.621V40.5375L105.721 40.275ZM127.898 56.125C127.898 56.65 127.986 57.0333 128.161 57.275C128.336 57.5167 128.607 57.6958 128.973 57.8125L128.461 59.2875C127.894 59.2125 127.398 59.0333 126.973 58.75C126.548 58.4583 126.24 58.0208 126.048 57.4375C125.573 58.0458 124.982 58.5083 124.273 58.825C123.565 59.1333 122.782 59.2875 121.923 59.2875C120.607 59.2875 119.569 58.9167 118.811 58.175C118.053 57.4333 117.673 56.45 117.673 55.225C117.673 53.8667 118.203 52.825 119.261 52.1C120.319 51.375 121.848 51.0125 123.848 51.0125H125.786V49.9125C125.786 48.9625 125.507 48.2917 124.948 47.9C124.398 47.5 123.632 47.3 122.648 47.3C122.215 47.3 121.707 47.3542 121.123 47.4625C120.54 47.5625 119.907 47.7333 119.223 47.975L118.673 46.3875C119.482 46.0875 120.24 45.875 120.948 45.75C121.657 45.625 122.332 45.5625 122.973 45.5625C124.615 45.5625 125.844 45.9458 126.661 46.7125C127.486 47.4708 127.898 48.5042 127.898 49.8125V56.125ZM122.461 57.6875C123.111 57.6875 123.732 57.525 124.323 57.2C124.915 56.8667 125.403 56.4083 125.786 55.825V52.4375H123.886C122.436 52.4375 121.411 52.6875 120.811 53.1875C120.219 53.6875 119.923 54.3583 119.923 55.2C119.923 56.0167 120.132 56.6375 120.548 57.0625C120.973 57.4792 121.611 57.6875 122.461 57.6875ZM180.522 61.8875V38.6125H186.784V40.425H182.509V60.1H186.784V61.8875H180.522ZM213.402 54.8875C213.977 54.8875 214.457 55.0833 214.84 55.475C215.232 55.8667 215.427 56.3375 215.427 56.8875C215.427 57.1875 215.39 57.4917 215.315 57.8C215.248 58.1083 215.123 58.4583 214.94 58.85L212.915 63.4875H211.015L212.215 58.55C211.965 58.3667 211.765 58.1292 211.615 57.8375C211.473 57.5375 211.402 57.2208 211.402 56.8875C211.402 56.3292 211.594 55.8583 211.977 55.475C212.361 55.0833 212.836 54.8875 213.402 54.8875ZM243.383 54.8875C243.958 54.8875 244.437 55.0833 244.82 55.475C245.212 55.8667 245.408 56.3375 245.408 56.8875C245.408 57.1875 245.37 57.4917 245.295 57.8C245.229 58.1083 245.104 58.4583 244.92 58.85L242.895 63.4875H240.995L242.195 58.55C241.945 58.3667 241.745 58.1292 241.595 57.8375C241.454 57.5375 241.383 57.2208 241.383 56.8875C241.383 56.3292 241.574 55.8583 241.958 55.475C242.341 55.0833 242.816 54.8875 243.383 54.8875ZM273.363 54.8875C273.938 54.8875 274.417 55.0833 274.801 55.475C275.192 55.8667 275.388 56.3375 275.388 56.8875C275.388 57.1875 275.351 57.4917 275.276 57.8C275.209 58.1083 275.084 58.4583 274.901 58.85L272.876 63.4875H270.976L272.176 58.55C271.926 58.3667 271.726 58.1292 271.576 57.8375C271.434 57.5375 271.363 57.2208 271.363 56.8875C271.363 56.3292 271.555 55.8583 271.938 55.475C272.322 55.0833 272.797 54.8875 273.363 54.8875ZM306.244 38.6125V61.8875H299.981V60.1125H304.256V40.425H299.981V38.6125H306.244Z" fill="white"/>
<path d="M158.304 47.95V49.7625H148.579V47.95H158.304ZM158.304 52.6875V54.5125H148.579V52.6875H158.304ZM200.25 41.7875V58.5H198.15V44.0625L194.2 46.4625L193.287 44.9625L198.412 41.7875H200.25ZM203.85 57.2875V59H193.912V57.2875H203.85ZM227.63 41.5125C228.713 41.5125 229.638 41.7208 230.405 42.1375C231.18 42.5542 231.776 43.125 232.193 43.85C232.609 44.575 232.818 45.3958 232.818 46.3125C232.818 47.1042 232.68 47.8792 232.405 48.6375C232.13 49.3875 231.688 50.1792 231.08 51.0125C230.48 51.8375 229.688 52.7542 228.705 53.7625C227.73 54.7708 226.53 55.9208 225.105 57.2125H233.218L232.955 59H222.718V57.2875C224.018 56.0458 225.122 54.9583 226.03 54.025C226.947 53.0917 227.701 52.275 228.293 51.575C228.893 50.8667 229.359 50.225 229.693 49.65C230.034 49.075 230.272 48.5292 230.405 48.0125C230.538 47.4875 230.605 46.9458 230.605 46.3875C230.605 45.4208 230.33 44.6583 229.78 44.1C229.238 43.5417 228.488 43.2625 227.53 43.2625C226.68 43.2625 225.984 43.4083 225.443 43.7C224.901 43.9917 224.359 44.4583 223.818 45.1L222.368 43.975C223.051 43.1417 223.809 42.525 224.643 42.125C225.476 41.7167 226.472 41.5125 227.63 41.5125ZM257.586 41.5125C258.669 41.5125 259.602 41.7083 260.386 42.1C261.177 42.4833 261.79 43.0042 262.223 43.6625C262.656 44.3125 262.873 45.0292 262.873 45.8125C262.873 46.5042 262.719 47.1333 262.411 47.7C262.102 48.2667 261.694 48.7333 261.186 49.1C260.677 49.4667 260.119 49.7083 259.511 49.825C260.186 49.875 260.819 50.0667 261.411 50.4C262.002 50.725 262.486 51.1917 262.861 51.8C263.236 52.4 263.423 53.1458 263.423 54.0375C263.423 55.0292 263.173 55.925 262.673 56.725C262.173 57.5167 261.473 58.1417 260.573 58.6C259.681 59.0583 258.64 59.2875 257.448 59.2875C256.49 59.2875 255.531 59.1042 254.573 58.7375C253.623 58.3708 252.819 57.7875 252.161 56.9875L253.573 55.8375C254.065 56.4125 254.648 56.8417 255.323 57.125C256.006 57.4083 256.698 57.55 257.398 57.55C258.598 57.55 259.536 57.2375 260.211 56.6125C260.886 55.9792 261.223 55.1208 261.223 54.0375C261.223 53.2208 261.065 52.575 260.748 52.1C260.44 51.625 260.019 51.2875 259.486 51.0875C258.952 50.8792 258.344 50.775 257.661 50.775H256.211L256.473 49.1125H257.486C258.044 49.1125 258.569 49.0083 259.061 48.8C259.561 48.5833 259.969 48.25 260.286 47.8C260.602 47.35 260.761 46.7875 260.761 46.1125C260.761 45.1625 260.444 44.4375 259.811 43.9375C259.177 43.4375 258.411 43.1875 257.511 43.1875C256.761 43.1875 256.106 43.3208 255.548 43.5875C254.99 43.8458 254.427 44.2417 253.861 44.775L252.698 43.4875C253.431 42.7958 254.211 42.2958 255.036 41.9875C255.861 41.6708 256.711 41.5125 257.586 41.5125ZM287.704 41.5125L289.454 42.25L284.879 53.1375H294.066V54.8125H282.654V53.2875L287.704 41.5125ZM291.841 48.25V59H289.816L289.804 53.5375L290.091 48.25H291.841Z" fill="#00E0E0"/>
<path d="M27.595 230.93C27.595 231.308 27.658 231.584 27.784 231.758C27.91 231.932 28.105 232.061 28.369 232.145L28 233.207C27.592 233.153 27.235 233.024 26.929 232.82C26.623 232.61 26.401 232.295 26.263 231.875C25.921 232.313 25.495 232.646 24.985 232.874C24.475 233.096 23.911 233.207 23.293 233.207C22.345 233.207 21.598 232.94 21.052 232.406C20.506 231.872 20.233 231.164 20.233 230.282C20.233 229.304 20.614 228.554 21.376 228.032C22.138 227.51 23.239 227.249 24.679 227.249H26.074V226.457C26.074 225.773 25.873 225.29 25.471 225.008C25.075 224.72 24.523 224.576 23.815 224.576C23.503 224.576 23.137 224.615 22.717 224.693C22.297 224.765 21.841 224.888 21.349 225.062L20.953 223.919C21.535 223.703 22.081 223.55 22.591 223.46C23.101 223.37 23.587 223.325 24.049 223.325C25.231 223.325 26.116 223.601 26.704 224.153C27.298 224.699 27.595 225.443 27.595 226.385V230.93ZM23.68 232.055C24.148 232.055 24.595 231.938 25.021 231.704C25.447 231.464 25.798 231.134 26.074 230.714V228.275H24.706C23.662 228.275 22.924 228.455 22.492 228.815C22.066 229.175 21.853 229.658 21.853 230.264C21.853 230.852 22.003 231.299 22.303 231.605C22.609 231.905 23.068 232.055 23.68 232.055ZM31.602 233V223.523H32.889L33.006 224.837C33.39 224.351 33.87 223.979 34.446 223.721C35.028 223.457 35.592 223.325 36.138 223.325C37.068 223.325 37.743 223.571 38.163 224.063C38.589 224.555 38.802 225.239 38.802 226.115V233H37.29V227.231C37.29 226.583 37.254 226.061 37.182 225.665C37.11 225.263 36.96 224.972 36.732 224.792C36.504 224.606 36.15 224.513 35.67 224.513C35.298 224.513 34.947 224.594 34.617 224.756C34.293 224.918 34.002 225.122 33.744 225.368C33.492 225.608 33.282 225.851 33.114 226.097V233H31.602ZM50.0989 222.515L50.5669 223.937C50.1649 224.063 49.7359 224.141 49.2799 224.171C48.8239 224.201 48.3289 224.216 47.7949 224.216C48.3409 224.468 48.7519 224.795 49.0279 225.197C49.3039 225.593 49.4419 226.061 49.4419 226.601C49.4419 227.225 49.3009 227.78 49.0189 228.266C48.7369 228.752 48.3289 229.133 47.7949 229.409C47.2669 229.685 46.6279 229.823 45.8779 229.823C45.5599 229.823 45.2929 229.808 45.0769 229.778C44.8669 229.748 44.6629 229.703 44.4649 229.643C44.3209 229.739 44.2009 229.871 44.1049 230.039C44.0149 230.207 43.9699 230.381 43.9699 230.561C43.9699 230.789 44.0599 230.978 44.2399 231.128C44.4199 231.278 44.7529 231.353 45.2389 231.353H46.9489C47.5849 231.353 48.1549 231.467 48.6589 231.695C49.1689 231.923 49.5679 232.229 49.8559 232.613C50.1499 232.997 50.2969 233.435 50.2969 233.927C50.2969 234.857 49.9009 235.571 49.1089 236.069C48.3229 236.567 47.2099 236.816 45.7699 236.816C44.7619 236.816 43.9669 236.711 43.3849 236.501C42.8029 236.297 42.3859 235.982 42.1339 235.556C41.8879 235.136 41.7649 234.605 41.7649 233.963H43.1329C43.1329 234.329 43.2049 234.632 43.3489 234.872C43.4929 235.112 43.7539 235.289 44.1319 235.403C44.5099 235.523 45.0529 235.583 45.7609 235.583C46.4569 235.583 47.0239 235.523 47.4619 235.403C47.9059 235.289 48.2329 235.115 48.4429 234.881C48.6589 234.653 48.7669 234.368 48.7669 234.026C48.7669 233.576 48.5629 233.237 48.1549 233.009C47.7469 232.781 47.2369 232.667 46.6249 232.667H44.9329C44.1169 232.667 43.5139 232.487 43.1239 232.127C42.7399 231.767 42.5479 231.353 42.5479 230.885C42.5479 230.579 42.6349 230.282 42.8089 229.994C42.9889 229.706 43.2499 229.451 43.5919 229.229C43.0459 228.941 42.6439 228.584 42.3859 228.158C42.1279 227.732 41.9989 227.216 41.9989 226.61C41.9989 225.968 42.1579 225.401 42.4759 224.909C42.7939 224.411 43.2379 224.021 43.8079 223.739C44.3779 223.457 45.0349 223.316 45.7789 223.316C46.5769 223.31 47.2249 223.277 47.7229 223.217C48.2209 223.151 48.6469 223.058 49.0009 222.938C49.3609 222.818 49.7269 222.677 50.0989 222.515ZM45.7789 224.423C45.0169 224.423 44.4529 224.63 44.0869 225.044C43.7269 225.452 43.5469 225.974 43.5469 226.61C43.5469 227.252 43.7329 227.78 44.1049 228.194C44.4769 228.608 45.0469 228.815 45.8149 228.815C46.4869 228.815 46.9969 228.62 47.3449 228.23C47.6989 227.84 47.8759 227.297 47.8759 226.601C47.8759 225.887 47.6989 225.347 47.3449 224.981C46.9969 224.609 46.4749 224.423 45.7789 224.423ZM61.1259 223.523L56.8599 227.789L61.6209 233H59.6319L54.9699 227.825L59.1639 223.523H61.1259ZM54.7989 219.518V233H53.2869V219.707L54.7989 219.518ZM70.7669 230.93C70.7669 231.308 70.8299 231.584 70.9559 231.758C71.0819 231.932 71.2769 232.061 71.5409 232.145L71.1719 233.207C70.7639 233.153 70.4069 233.024 70.1009 232.82C69.7949 232.61 69.5729 232.295 69.4349 231.875C69.0929 232.313 68.6669 232.646 68.1569 232.874C67.6469 233.096 67.0829 233.207 66.4649 233.207C65.5169 233.207 64.7699 232.94 64.2239 232.406C63.6779 231.872 63.4049 231.164 63.4049 230.282C63.4049 229.304 63.7859 228.554 64.5479 228.032C65.3099 227.51 66.4109 227.249 67.8509 227.249H69.2459V226.457C69.2459 225.773 69.0449 225.29 68.6429 225.008C68.2469 224.72 67.6949 224.576 66.9869 224.576C66.6749 224.576 66.3089 224.615 65.8889 224.693C65.4689 224.765 65.0129 224.888 64.5209 225.062L64.1249 223.919C64.7069 223.703 65.2529 223.55 65.7629 223.46C66.2729 223.37 66.7589 223.325 67.2209 223.325C68.4029 223.325 69.2879 223.601 69.8759 224.153C70.4699 224.699 70.7669 225.443 70.7669 226.385V230.93ZM66.8519 232.055C67.3199 232.055 67.7669 231.938 68.1929 231.704C68.6189 231.464 68.9699 231.134 69.2459 230.714V228.275H67.8779C66.8339 228.275 66.0959 228.455 65.6639 228.815C65.2379 229.175 65.0249 229.658 65.0249 230.264C65.0249 230.852 65.1749 231.299 65.4749 231.605C65.7809 231.905 66.2399 232.055 66.8519 232.055ZM108.656 235.079V218.321H113.165V219.626H110.087V233.792H113.165V235.079H108.656ZM132.33 230.039C132.744 230.039 133.089 230.18 133.365 230.462C133.647 230.744 133.788 231.083 133.788 231.479C133.788 231.695 133.761 231.914 133.707 232.136C133.659 232.358 133.569 232.61 133.437 232.892L131.979 236.231H130.611L131.475 232.676C131.295 232.544 131.151 232.373 131.043 232.163C130.941 231.947 130.89 231.719 130.89 231.479C130.89 231.077 131.028 230.738 131.304 230.462C131.58 230.18 131.922 230.039 132.33 230.039ZM153.916 230.039C154.33 230.039 154.675 230.18 154.951 230.462C155.233 230.744 155.374 231.083 155.374 231.479C155.374 231.695 155.347 231.914 155.293 232.136C155.245 232.358 155.155 232.61 155.023 232.892L153.565 236.231H152.197L153.061 232.676C152.881 232.544 152.737 232.373 152.629 232.163C152.527 231.947 152.476 231.719 152.476 231.479C152.476 231.077 152.614 230.738 152.89 230.462C153.166 230.18 153.508 230.039 153.916 230.039ZM175.502 230.039C175.916 230.039 176.261 230.18 176.537 230.462C176.819 230.744 176.96 231.083 176.96 231.479C176.96 231.695 176.933 231.914 176.879 232.136C176.831 232.358 176.741 232.61 176.609 232.892L175.151 236.231H173.783L174.647 232.676C174.467 232.544 174.323 232.373 174.215 232.163C174.113 231.947 174.062 231.719 174.062 231.479C174.062 231.077 174.2 230.738 174.476 230.462C174.752 230.18 175.094 230.039 175.502 230.039ZM199.176 218.321V235.079H194.667V233.801H197.745V219.626H194.667V218.321H199.176Z" fill="white"/>
<path d="M92.6588 225.044V226.349H85.6568V225.044H92.6588ZM92.6588 228.455V229.769H85.6568V228.455H92.6588ZM122.86 220.607V232.64H121.348V222.245L118.504 223.973L117.847 222.893L121.537 220.607H122.86ZM125.452 231.767V233H118.297V231.767H125.452ZM142.574 220.409C143.354 220.409 144.02 220.559 144.572 220.859C145.13 221.159 145.559 221.57 145.859 222.092C146.159 222.614 146.309 223.205 146.309 223.865C146.309 224.435 146.21 224.993 146.012 225.539C145.814 226.079 145.496 226.649 145.058 227.249C144.626 227.843 144.056 228.503 143.348 229.229C142.646 229.955 141.782 230.783 140.756 231.713H146.597L146.408 233H139.037V231.767C139.973 230.873 140.768 230.09 141.422 229.418C142.082 228.746 142.625 228.158 143.051 227.654C143.483 227.144 143.819 226.682 144.059 226.268C144.305 225.854 144.476 225.461 144.572 225.089C144.668 224.711 144.716 224.321 144.716 223.919C144.716 223.223 144.518 222.674 144.122 222.272C143.732 221.87 143.192 221.669 142.502 221.669C141.89 221.669 141.389 221.774 140.999 221.984C140.609 222.194 140.219 222.53 139.829 222.992L138.785 222.182C139.277 221.582 139.823 221.138 140.423 220.85C141.023 220.556 141.74 220.409 142.574 220.409ZM164.142 220.409C164.922 220.409 165.594 220.55 166.158 220.832C166.728 221.108 167.169 221.483 167.481 221.957C167.793 222.425 167.949 222.941 167.949 223.505C167.949 224.003 167.838 224.456 167.616 224.864C167.394 225.272 167.1 225.608 166.734 225.872C166.368 226.136 165.966 226.31 165.528 226.394C166.014 226.43 166.47 226.568 166.896 226.808C167.322 227.042 167.67 227.378 167.94 227.816C168.21 228.248 168.345 228.785 168.345 229.427C168.345 230.141 168.165 230.786 167.805 231.362C167.445 231.932 166.941 232.382 166.293 232.712C165.651 233.042 164.901 233.207 164.043 233.207C163.353 233.207 162.663 233.075 161.973 232.811C161.289 232.547 160.71 232.127 160.236 231.551L161.253 230.723C161.607 231.137 162.027 231.446 162.513 231.65C163.005 231.854 163.503 231.956 164.007 231.956C164.871 231.956 165.546 231.731 166.032 231.281C166.518 230.825 166.761 230.207 166.761 229.427C166.761 228.839 166.647 228.374 166.419 228.032C166.197 227.69 165.894 227.447 165.51 227.303C165.126 227.153 164.688 227.078 164.196 227.078H163.152L163.341 225.881H164.07C164.472 225.881 164.85 225.806 165.204 225.656C165.564 225.5 165.858 225.26 166.086 224.936C166.314 224.612 166.428 224.207 166.428 223.721C166.428 223.037 166.2 222.515 165.744 222.155C165.288 221.795 164.736 221.615 164.088 221.615C163.548 221.615 163.077 221.711 162.675 221.903C162.273 222.089 161.868 222.374 161.46 222.758L160.623 221.831C161.151 221.333 161.712 220.973 162.306 220.751C162.9 220.523 163.512 220.409 164.142 220.409ZM185.827 220.409L187.087 220.94L183.793 228.779H190.408V229.985H182.191V228.887L185.827 220.409ZM188.806 225.26V233H187.348L187.339 229.067L187.546 225.26H188.806Z" fill="#00E0E0"/>
<rect x="10" y="46" width="29.6462" height="8" fill="#E22727"/>
<path d="M51 50.5L39.6462 61.3253V39.6747L51 50.5Z" fill="#E22727"/>
<line x1="483.5" x2="483.5" y2="300" stroke="#3A4061"/>
<line x1="-0.000517597" y1="209.5" x2="483" y2="209" stroke="#3A4061"/>
<rect x="417" y="215" width="61" height="20" rx="4" fill="#404040"/>
<path d="M429.427 220.361L429.973 230H428.804L428.503 224.967C428.489 224.626 428.475 224.281 428.461 223.931C428.447 223.581 428.438 223.245 428.433 222.923C428.428 222.601 428.426 222.314 428.426 222.062C428.426 221.81 428.426 221.614 428.426 221.474L426.802 228.271H425.584L423.841 221.474C423.846 221.609 423.85 221.81 423.855 222.076C423.86 222.337 423.862 222.634 423.862 222.965C423.867 223.296 423.864 223.637 423.855 223.987C423.85 224.332 423.841 224.654 423.827 224.953L423.568 230H422.427L422.973 220.361H424.667L426.228 226.962L427.719 220.361H429.427ZM432.726 226.731C432.749 227.3 432.859 227.767 433.055 228.131C433.251 228.49 433.51 228.756 433.832 228.929C434.154 229.097 434.504 229.181 434.882 229.181C435.26 229.181 435.6 229.125 435.904 229.013C436.212 228.901 436.527 228.735 436.849 228.516L437.402 229.293C437.056 229.564 436.662 229.776 436.219 229.93C435.78 230.084 435.33 230.161 434.868 230.161C434.154 230.161 433.545 230 433.041 229.678C432.537 229.356 432.152 228.908 431.886 228.334C431.624 227.755 431.494 227.086 431.494 226.325C431.494 225.578 431.627 224.916 431.893 224.337C432.159 223.758 432.532 223.303 433.013 222.972C433.493 222.641 434.06 222.475 434.714 222.475C435.334 222.475 435.869 222.622 436.317 222.916C436.765 223.205 437.108 223.621 437.346 224.162C437.588 224.699 437.71 225.34 437.71 226.087C437.71 226.213 437.707 226.332 437.703 226.444C437.698 226.551 437.691 226.647 437.682 226.731H432.726ZM434.728 223.441C434.182 223.441 433.724 223.635 433.356 224.022C432.992 224.409 432.784 225.009 432.733 225.821H436.576C436.562 225.032 436.389 224.44 436.058 224.043C435.726 223.642 435.283 223.441 434.728 223.441ZM445.054 222.475C445.292 222.475 445.518 222.526 445.733 222.629C445.952 222.732 446.132 222.93 446.272 223.224C446.412 223.518 446.482 223.947 446.482 224.512V230H445.39V224.701C445.39 224.239 445.362 223.905 445.306 223.7C445.25 223.495 445.089 223.392 444.823 223.392C444.604 223.392 444.384 223.462 444.165 223.602C443.95 223.737 443.74 223.961 443.535 224.274V230H442.436V224.701C442.436 224.239 442.408 223.905 442.352 223.7C442.296 223.495 442.135 223.392 441.869 223.392C441.64 223.392 441.419 223.462 441.204 223.602C440.994 223.737 440.786 223.961 440.581 224.274V230H439.496V222.629H440.42L440.49 223.483C440.691 223.198 440.915 222.96 441.162 222.769C441.414 222.573 441.724 222.475 442.093 222.475C442.373 222.475 442.637 222.543 442.884 222.678C443.131 222.809 443.313 223.065 443.43 223.448C443.631 223.159 443.857 222.925 444.109 222.748C444.361 222.566 444.676 222.475 445.054 222.475ZM451.398 222.475C452.093 222.475 452.674 222.634 453.141 222.951C453.612 223.264 453.964 223.707 454.198 224.281C454.436 224.855 454.555 225.532 454.555 226.311C454.555 227.062 454.433 227.727 454.191 228.306C453.948 228.885 453.591 229.34 453.12 229.671C452.653 229.998 452.074 230.161 451.384 230.161C450.693 230.161 450.112 230.002 449.641 229.685C449.169 229.368 448.812 228.922 448.57 228.348C448.332 227.769 448.213 227.095 448.213 226.325C448.213 225.564 448.334 224.895 448.577 224.316C448.819 223.737 449.176 223.287 449.648 222.965C450.124 222.638 450.707 222.475 451.398 222.475ZM451.398 223.434C450.763 223.434 450.282 223.67 449.956 224.141C449.634 224.608 449.473 225.336 449.473 226.325C449.473 227.296 449.631 228.017 449.949 228.488C450.271 228.959 450.749 229.195 451.384 229.195C452.018 229.195 452.494 228.959 452.812 228.488C453.134 228.017 453.295 227.291 453.295 226.311C453.295 225.331 453.136 224.608 452.819 224.141C452.501 223.67 452.028 223.434 451.398 223.434ZM457.055 230V229.097H458.203V223.532H457.055V222.629H459.099L459.316 224.372C459.601 223.765 459.946 223.296 460.352 222.965C460.758 222.634 461.295 222.468 461.962 222.468C462.167 222.468 462.349 222.484 462.508 222.517C462.671 222.545 462.837 222.582 463.005 222.629L462.662 223.679C462.508 223.637 462.368 223.607 462.242 223.588C462.116 223.565 461.971 223.553 461.808 223.553C461.243 223.553 460.758 223.754 460.352 224.155C459.946 224.556 459.622 225.163 459.379 225.975V229.097H460.877V230H457.055ZM461.871 225.121V223.518L461.99 222.629H463.005L462.837 225.121H461.871ZM471.512 222.629L468.922 230.049C468.749 230.548 468.53 231.006 468.264 231.421C468.002 231.836 467.659 232.179 467.235 232.45C466.815 232.725 466.28 232.896 465.632 232.961L465.45 232.023C465.958 231.939 466.36 231.811 466.654 231.638C466.948 231.465 467.179 231.244 467.347 230.973C467.519 230.702 467.671 230.378 467.802 230H467.41L464.834 222.629H466.094L468.208 229.104L470.294 222.629H471.512Z" fill="white"/>
<rect x="632" y="6" width="61" height="20" rx="4" fill="#404040"/>
<path d="M644.749 16.191C644.749 17.1617 644.616 18.0227 644.35 18.774C644.089 19.5207 643.694 20.1063 643.167 20.531C642.64 20.951 641.984 21.161 641.2 21.161C640.421 21.161 639.765 20.9557 639.233 20.545C638.706 20.1297 638.309 19.551 638.043 18.809C637.782 18.067 637.651 17.199 637.651 16.205C637.651 15.2297 637.782 14.3663 638.043 13.615C638.309 12.8637 638.706 12.2757 639.233 11.851C639.765 11.4217 640.421 11.207 641.2 11.207C641.984 11.207 642.64 11.4147 643.167 11.83C643.694 12.2453 644.089 12.8263 644.35 13.573C644.616 14.3197 644.749 15.1923 644.749 16.191ZM643.475 16.191C643.475 14.9077 643.298 13.9253 642.943 13.244C642.593 12.5627 642.012 12.222 641.2 12.222C640.388 12.222 639.805 12.565 639.45 13.251C639.1 13.937 638.925 14.9217 638.925 16.205C638.925 17.4883 639.107 18.466 639.471 19.138C639.835 19.8053 640.411 20.139 641.2 20.139C642.012 20.139 642.593 19.803 642.943 19.131C643.298 18.4543 643.475 17.4743 643.475 16.191ZM647.978 13.629V18.851C647.978 19.3363 648.078 19.6863 648.279 19.901C648.479 20.1157 648.792 20.223 649.217 20.223C649.623 20.223 650.005 20.1087 650.365 19.88C650.729 19.6467 651.011 19.3713 651.212 19.054V13.629H652.388V21H651.387L651.289 20.006C650.999 20.3793 650.642 20.6663 650.218 20.867C649.793 21.063 649.364 21.161 648.93 21.161C648.216 21.161 647.681 20.972 647.327 20.594C646.977 20.2113 646.802 19.677 646.802 18.991V13.629H647.978ZM661.048 20.629C660.796 20.797 660.49 20.9277 660.131 21.021C659.772 21.1143 659.419 21.161 659.074 21.161C658.281 21.161 657.669 20.9533 657.24 20.538C656.811 20.1227 656.596 19.5883 656.596 18.935V14.539H654.902V13.629H656.596V11.956L657.772 11.816V13.629H660.32L660.18 14.539H657.772V18.921C657.772 19.3317 657.879 19.6443 658.094 19.859C658.313 20.0737 658.675 20.181 659.179 20.181C659.454 20.181 659.709 20.1483 659.942 20.083C660.175 20.0177 660.392 19.9337 660.593 19.831L661.048 20.629ZM666.888 13.475C667.541 13.475 668.061 13.6337 668.449 13.951C668.841 14.2683 669.123 14.7163 669.296 15.295C669.468 15.869 669.555 16.541 669.555 17.311C669.555 18.053 669.45 18.7157 669.24 19.299C669.034 19.8777 668.722 20.3327 668.302 20.664C667.882 20.9953 667.352 21.161 666.713 21.161C665.905 21.161 665.257 20.8763 664.767 20.307V23.821L663.591 23.968V13.629H664.592L664.69 14.658C664.96 14.28 665.282 13.9883 665.656 13.783C666.034 13.5777 666.444 13.475 666.888 13.475ZM666.608 14.42C666.202 14.42 665.842 14.5437 665.53 14.791C665.222 15.0337 664.967 15.3043 664.767 15.603V19.257C664.958 19.5417 665.198 19.768 665.488 19.936C665.782 20.0993 666.104 20.181 666.454 20.181C667.065 20.181 667.525 19.9477 667.833 19.481C668.141 19.0143 668.295 18.2887 668.295 17.304C668.295 16.66 668.234 16.1257 668.113 15.701C667.991 15.2717 667.807 14.952 667.56 14.742C667.312 14.5273 666.995 14.42 666.608 14.42ZM673.161 13.629V18.851C673.161 19.3363 673.261 19.6863 673.462 19.901C673.663 20.1157 673.975 20.223 674.4 20.223C674.806 20.223 675.189 20.1087 675.548 19.88C675.912 19.6467 676.194 19.3713 676.395 19.054V13.629H677.571V21H676.57L676.472 20.006C676.183 20.3793 675.826 20.6663 675.401 20.867C674.976 21.063 674.547 21.161 674.113 21.161C673.399 21.161 672.865 20.972 672.51 20.594C672.16 20.2113 671.985 19.677 671.985 18.991V13.629H673.161ZM686.232 20.629C685.98 20.797 685.674 20.9277 685.315 21.021C684.955 21.1143 684.603 21.161 684.258 21.161C683.464 21.161 682.853 20.9533 682.424 20.538C681.994 20.1227 681.78 19.5883 681.78 18.935V14.539H680.086V13.629H681.78V11.956L682.956 11.816V13.629H685.504L685.364 14.539H682.956V18.921C682.956 19.3317 683.063 19.6443 683.278 19.859C683.497 20.0737 683.859 20.181 684.363 20.181C684.638 20.181 684.892 20.1483 685.126 20.083C685.359 20.0177 685.576 19.9337 685.777 19.831L686.232 20.629Z" fill="white"/>
<path d="M65.2875 90.275C65.9958 90.275 66.6375 90.3375 67.2125 90.4625C67.7875 90.5875 68.3333 90.7625 68.85 90.9875L68.175 92.55C67.75 92.3667 67.3 92.2292 66.825 92.1375C66.35 92.0458 65.8583 92 65.35 92C64.4333 92 63.7417 92.1792 63.275 92.5375C62.8167 92.8958 62.5875 93.4458 62.5875 94.1875V96.8625H67.05L66.825 98.5125H62.5875V109H60.4875V98.5125H57.35V96.8625H60.4875V94.2375C60.4875 93.4208 60.6958 92.7167 61.1125 92.125C61.5375 91.5333 62.1125 91.0792 62.8375 90.7625C63.5625 90.4375 64.3792 90.275 65.2875 90.275ZM77.5152 95.5625C78.7569 95.5625 79.7944 95.8458 80.6277 96.4125C81.4694 96.9708 82.0986 97.7625 82.5152 98.7875C82.9402 99.8125 83.1527 101.021 83.1527 102.412C83.1527 103.754 82.9361 104.942 82.5027 105.975C82.0694 107.008 81.4319 107.821 80.5902 108.412C79.7569 108.996 78.7236 109.288 77.4902 109.288C76.2569 109.288 75.2194 109.004 74.3777 108.437C73.5361 107.871 72.8986 107.075 72.4652 106.05C72.0402 105.017 71.8277 103.812 71.8277 102.437C71.8277 101.079 72.0444 99.8833 72.4777 98.85C72.9111 97.8167 73.5486 97.0125 74.3902 96.4375C75.2402 95.8542 76.2819 95.5625 77.5152 95.5625ZM77.5152 97.275C76.3819 97.275 75.5236 97.6958 74.9402 98.5375C74.3652 99.3708 74.0777 100.671 74.0777 102.437C74.0777 104.171 74.3611 105.458 74.9277 106.3C75.5027 107.142 76.3569 107.562 77.4902 107.562C78.6236 107.562 79.4736 107.142 80.0402 106.3C80.6152 105.458 80.9027 104.162 80.9027 102.412C80.9027 100.662 80.6194 99.3708 80.0527 98.5375C79.4861 97.6958 78.6402 97.275 77.5152 97.275ZM87.618 109V107.387H89.668V97.45H87.618V95.8375H91.268L91.6555 98.95C92.1638 97.8667 92.7805 97.0292 93.5055 96.4375C94.2305 95.8458 95.1888 95.55 96.3805 95.55C96.7471 95.55 97.0721 95.5792 97.3555 95.6375C97.6471 95.6875 97.943 95.7542 98.243 95.8375L97.6305 97.7125C97.3555 97.6375 97.1055 97.5833 96.8805 97.55C96.6555 97.5083 96.3971 97.4875 96.1055 97.4875C95.0971 97.4875 94.2305 97.8458 93.5055 98.5625C92.7805 99.2792 92.2013 100.362 91.768 101.812V107.387H94.443V109H87.618ZM96.218 100.287V97.425L96.4305 95.8375H98.243L97.943 100.287H96.218ZM154.116 95.8375V107.337H157.829V109H147.954V107.337H152.016V97.5H148.079V95.8375H154.116ZM152.441 89.675C152.908 89.675 153.279 89.8167 153.554 90.1C153.837 90.3833 153.979 90.7292 153.979 91.1375C153.979 91.5625 153.837 91.9208 153.554 92.2125C153.279 92.4958 152.908 92.6375 152.441 92.6375C152 92.6375 151.637 92.4958 151.354 92.2125C151.071 91.9208 150.929 91.5625 150.929 91.1375C150.929 90.7292 151.071 90.3833 151.354 90.1C151.637 89.8167 152 89.675 152.441 89.675ZM162.444 109V95.8375H164.232L164.394 97.6625C164.927 96.9875 165.594 96.4708 166.394 96.1125C167.202 95.7458 167.986 95.5625 168.744 95.5625C170.036 95.5625 170.973 95.9042 171.557 96.5875C172.148 97.2708 172.444 98.2208 172.444 99.4375V109H170.344V100.987C170.344 100.087 170.294 99.3625 170.194 98.8125C170.094 98.2542 169.886 97.85 169.569 97.6C169.252 97.3417 168.761 97.2125 168.094 97.2125C167.577 97.2125 167.09 97.325 166.632 97.55C166.182 97.775 165.777 98.0583 165.419 98.4C165.069 98.7333 164.777 99.0708 164.544 99.4125V109H162.444ZM270.326 107.25C270.326 106.708 270.517 106.237 270.901 105.837C271.292 105.437 271.772 105.237 272.338 105.237C272.922 105.237 273.405 105.437 273.788 105.837C274.18 106.237 274.376 106.708 274.376 107.25C274.376 107.817 274.18 108.3 273.788 108.7C273.405 109.092 272.922 109.288 272.338 109.288C271.772 109.288 271.292 109.092 270.901 108.7C270.517 108.3 270.326 107.817 270.326 107.25ZM270.326 98.2375C270.326 97.8542 270.413 97.5125 270.588 97.2125C270.763 96.9125 271.005 96.675 271.313 96.5C271.622 96.3167 271.963 96.225 272.338 96.225C272.922 96.225 273.405 96.4208 273.788 96.8125C274.18 97.2042 274.376 97.6792 274.376 98.2375C274.376 98.7875 274.18 99.2667 273.788 99.675C273.405 100.075 272.922 100.275 272.338 100.275C271.772 100.275 271.292 100.075 270.901 99.675C270.517 99.2667 270.326 98.7875 270.326 98.2375Z" fill="#00E0E0"/>
<path d="M124.136 95.8375V107.337H127.848V109H117.973V107.337H122.036V97.5H118.098V95.8375H124.136ZM122.461 89.675C122.928 89.675 123.298 89.8167 123.573 90.1C123.857 90.3833 123.998 90.7292 123.998 91.1375C123.998 91.5625 123.857 91.9208 123.573 92.2125C123.298 92.4958 122.928 92.6375 122.461 92.6375C122.019 92.6375 121.657 92.4958 121.373 92.2125C121.09 91.9208 120.948 91.5625 120.948 91.1375C120.948 90.7292 121.09 90.3833 121.373 90.1C121.657 89.8167 122.019 89.675 122.461 89.675ZM195.225 133.25C195.225 134.55 195.337 135.717 195.562 136.75C195.787 137.775 196.12 138.717 196.562 139.575C197.004 140.425 197.558 141.233 198.225 142C198.9 142.775 199.683 143.558 200.575 144.35L199.475 145.5C198.125 144.392 196.966 143.258 196 142.1C195.041 140.942 194.304 139.65 193.787 138.225C193.279 136.8 193.025 135.142 193.025 133.25C193.025 131.35 193.279 129.687 193.787 128.262C194.304 126.837 195.041 125.546 196 124.387C196.966 123.229 198.125 122.1 199.475 121L200.575 122.15C199.675 122.95 198.887 123.737 198.212 124.512C197.545 125.279 196.991 126.087 196.55 126.937C196.108 127.779 195.775 128.717 195.55 129.75C195.333 130.775 195.225 131.942 195.225 133.25ZM214.077 128.837V140.337H217.79V142H207.915V140.337H211.977V130.5H208.04V128.837H214.077ZM212.402 122.675C212.869 122.675 213.24 122.817 213.515 123.1C213.798 123.383 213.94 123.729 213.94 124.137C213.94 124.562 213.798 124.921 213.515 125.212C213.24 125.496 212.869 125.637 212.402 125.637C211.961 125.637 211.598 125.496 211.315 125.212C211.032 124.921 210.89 124.562 210.89 124.137C210.89 123.729 211.032 123.383 211.315 123.1C211.598 122.817 211.961 122.675 212.402 122.675ZM229.58 133.25C229.58 131.942 229.468 130.775 229.243 129.75C229.026 128.717 228.697 127.779 228.255 126.937C227.813 126.087 227.255 125.279 226.58 124.512C225.913 123.737 225.13 122.95 224.23 122.15L225.33 121C226.688 122.1 227.847 123.229 228.805 124.387C229.763 125.546 230.497 126.837 231.005 128.262C231.522 129.687 231.78 131.35 231.78 133.25C231.78 135.142 231.522 136.8 231.005 138.225C230.497 139.65 229.763 140.942 228.805 142.1C227.847 143.258 226.688 144.392 225.33 145.5L224.23 144.35C225.122 143.558 225.901 142.775 226.568 142C227.243 141.233 227.801 140.425 228.243 139.575C228.684 138.717 229.018 137.775 229.243 136.75C229.468 135.717 229.58 134.55 229.58 133.25Z" fill="white"/>
<path d="M201.85 106.125C201.85 106.65 201.937 107.033 202.112 107.275C202.287 107.517 202.558 107.696 202.925 107.812L202.412 109.288C201.845 109.213 201.35 109.033 200.925 108.75C200.5 108.458 200.191 108.021 200 107.438C199.525 108.046 198.933 108.508 198.225 108.825C197.516 109.133 196.733 109.288 195.875 109.288C194.558 109.288 193.52 108.917 192.762 108.175C192.004 107.433 191.625 106.45 191.625 105.225C191.625 103.867 192.154 102.825 193.212 102.1C194.27 101.375 195.8 101.012 197.8 101.012H199.737V99.9125C199.737 98.9625 199.458 98.2917 198.9 97.9C198.35 97.5 197.583 97.3 196.6 97.3C196.166 97.3 195.658 97.3542 195.075 97.4625C194.491 97.5625 193.858 97.7333 193.175 97.975L192.625 96.3875C193.433 96.0875 194.191 95.875 194.9 95.75C195.608 95.625 196.283 95.5625 196.925 95.5625C198.566 95.5625 199.795 95.9458 200.612 96.7125C201.437 97.4708 201.85 98.5042 201.85 99.8125V106.125ZM196.412 107.687C197.062 107.687 197.683 107.525 198.275 107.2C198.866 106.867 199.354 106.408 199.737 105.825V102.437H197.837C196.387 102.437 195.362 102.687 194.762 103.187C194.17 103.687 193.875 104.358 193.875 105.2C193.875 106.017 194.083 106.637 194.5 107.062C194.925 107.479 195.562 107.687 196.412 107.687ZM207.415 109V95.8375H209.202L209.365 97.6625C209.898 96.9875 210.565 96.4708 211.365 96.1125C212.173 95.7458 212.957 95.5625 213.715 95.5625C215.007 95.5625 215.944 95.9042 216.527 96.5875C217.119 97.2708 217.415 98.2208 217.415 99.4375V109H215.315V100.987C215.315 100.087 215.265 99.3625 215.165 98.8125C215.065 98.2542 214.857 97.85 214.54 97.6C214.223 97.3417 213.732 97.2125 213.065 97.2125C212.548 97.2125 212.061 97.325 211.602 97.55C211.152 97.775 210.748 98.0583 210.39 98.4C210.04 98.7333 209.748 99.0708 209.515 99.4125V109H207.415ZM233.105 94.4375L233.755 96.4125C233.197 96.5875 232.601 96.6958 231.968 96.7375C231.334 96.7792 230.647 96.8 229.905 96.8C230.663 97.15 231.234 97.6042 231.618 98.1625C232.001 98.7125 232.193 99.3625 232.193 100.112C232.193 100.979 231.997 101.75 231.605 102.425C231.213 103.1 230.647 103.629 229.905 104.012C229.172 104.396 228.284 104.587 227.243 104.587C226.801 104.587 226.43 104.567 226.13 104.525C225.838 104.483 225.555 104.421 225.28 104.337C225.08 104.471 224.913 104.654 224.78 104.887C224.655 105.121 224.593 105.362 224.593 105.612C224.593 105.929 224.718 106.192 224.968 106.4C225.218 106.608 225.68 106.712 226.355 106.712H228.73C229.613 106.712 230.405 106.871 231.105 107.187C231.813 107.504 232.368 107.929 232.768 108.462C233.176 108.996 233.38 109.604 233.38 110.288C233.38 111.579 232.83 112.571 231.73 113.263C230.638 113.954 229.093 114.3 227.093 114.3C225.693 114.3 224.588 114.154 223.78 113.863C222.972 113.579 222.393 113.142 222.043 112.55C221.701 111.967 221.53 111.229 221.53 110.338H223.43C223.43 110.846 223.53 111.267 223.73 111.6C223.93 111.933 224.293 112.179 224.818 112.338C225.343 112.504 226.097 112.588 227.08 112.588C228.047 112.588 228.834 112.504 229.443 112.338C230.059 112.179 230.513 111.938 230.805 111.613C231.105 111.296 231.255 110.9 231.255 110.425C231.255 109.8 230.972 109.329 230.405 109.013C229.838 108.696 229.13 108.537 228.28 108.537H225.93C224.797 108.537 223.959 108.287 223.418 107.787C222.884 107.287 222.618 106.712 222.618 106.062C222.618 105.637 222.738 105.225 222.98 104.825C223.23 104.425 223.593 104.071 224.068 103.762C223.309 103.362 222.751 102.867 222.393 102.275C222.034 101.683 221.855 100.967 221.855 100.125C221.855 99.2333 222.076 98.4458 222.518 97.7625C222.959 97.0708 223.576 96.5292 224.368 96.1375C225.159 95.7458 226.072 95.55 227.105 95.55C228.213 95.5417 229.113 95.4958 229.805 95.4125C230.497 95.3208 231.088 95.1917 231.58 95.025C232.08 94.8583 232.588 94.6625 233.105 94.4375ZM227.105 97.0875C226.047 97.0875 225.263 97.375 224.755 97.95C224.255 98.5167 224.005 99.2417 224.005 100.125C224.005 101.017 224.263 101.75 224.78 102.325C225.297 102.9 226.088 103.187 227.155 103.187C228.088 103.187 228.797 102.917 229.28 102.375C229.772 101.833 230.018 101.079 230.018 100.112C230.018 99.1208 229.772 98.3708 229.28 97.8625C228.797 97.3458 228.072 97.0875 227.105 97.0875ZM248.42 95.8375L242.495 101.762L249.108 109H246.345L239.87 101.812L245.695 95.8375H248.42ZM239.633 90.275V109H237.533V90.5375L239.633 90.275ZM261.811 106.125C261.811 106.65 261.898 107.033 262.073 107.275C262.248 107.517 262.519 107.696 262.886 107.812L262.373 109.288C261.806 109.213 261.311 109.033 260.886 108.75C260.461 108.458 260.152 108.021 259.961 107.438C259.486 108.046 258.894 108.508 258.186 108.825C257.477 109.133 256.694 109.288 255.836 109.288C254.519 109.288 253.481 108.917 252.723 108.175C251.965 107.433 251.586 106.45 251.586 105.225C251.586 103.867 252.115 102.825 253.173 102.1C254.231 101.375 255.761 101.012 257.761 101.012H259.698V99.9125C259.698 98.9625 259.419 98.2917 258.861 97.9C258.311 97.5 257.544 97.3 256.561 97.3C256.127 97.3 255.619 97.3542 255.036 97.4625C254.452 97.5625 253.819 97.7333 253.136 97.975L252.586 96.3875C253.394 96.0875 254.152 95.875 254.861 95.75C255.569 95.625 256.244 95.5625 256.886 95.5625C258.527 95.5625 259.756 95.9458 260.573 96.7125C261.398 97.4708 261.811 98.5042 261.811 99.8125V106.125ZM256.373 107.687C257.023 107.687 257.644 107.525 258.236 107.2C258.827 106.867 259.315 106.408 259.698 105.825V102.437H257.798C256.348 102.437 255.323 102.687 254.723 103.187C254.131 103.687 253.836 104.358 253.836 105.2C253.836 106.017 254.044 106.637 254.461 107.062C254.886 107.479 255.523 107.687 256.373 107.687Z" fill="#FFA07A"/>
<path d="M123.361 128.562C124.528 128.562 125.457 128.846 126.148 129.412C126.848 129.979 127.353 130.779 127.661 131.812C127.969 132.837 128.123 134.037 128.123 135.412C128.123 136.737 127.936 137.921 127.561 138.962C127.194 139.996 126.636 140.808 125.886 141.4C125.136 141.992 124.19 142.288 123.048 142.288C121.607 142.288 120.448 141.779 119.573 140.762V147.038L117.473 147.3V128.837H119.261L119.436 130.675C119.919 130 120.494 129.479 121.161 129.112C121.836 128.746 122.569 128.562 123.361 128.562ZM122.861 130.25C122.136 130.25 121.494 130.471 120.936 130.912C120.386 131.346 119.932 131.829 119.573 132.362V138.887C119.915 139.396 120.344 139.8 120.861 140.1C121.386 140.392 121.961 140.537 122.586 140.537C123.678 140.537 124.498 140.121 125.048 139.287C125.598 138.454 125.873 137.158 125.873 135.4C125.873 134.25 125.765 133.296 125.548 132.537C125.332 131.771 125.003 131.2 124.561 130.825C124.119 130.442 123.553 130.25 122.861 130.25ZM132.589 142V140.387H134.639V130.45H132.589V128.837H136.239L136.626 131.95C137.135 130.867 137.751 130.029 138.476 129.438C139.201 128.846 140.16 128.55 141.351 128.55C141.718 128.55 142.043 128.579 142.326 128.637C142.618 128.687 142.914 128.754 143.214 128.837L142.601 130.712C142.326 130.637 142.076 130.583 141.851 130.55C141.626 130.508 141.368 130.487 141.076 130.487C140.068 130.487 139.201 130.846 138.476 131.562C137.751 132.279 137.172 133.362 136.739 134.812V140.387H139.414V142H132.589ZM141.189 133.287V130.425L141.401 128.837H143.214L142.914 133.287H141.189ZM154.116 128.837V140.337H157.829V142H147.954V140.337H152.016V130.5H148.079V128.837H154.116ZM152.441 122.675C152.908 122.675 153.279 122.817 153.554 123.1C153.837 123.383 153.979 123.729 153.979 124.137C153.979 124.562 153.837 124.921 153.554 125.212C153.279 125.496 152.908 125.637 152.441 125.637C152 125.637 151.637 125.496 151.354 125.212C151.071 124.921 150.929 124.562 150.929 124.137C150.929 123.729 151.071 123.383 151.354 123.1C151.637 122.817 152 122.675 152.441 122.675ZM162.444 142V128.837H164.232L164.394 130.662C164.927 129.987 165.594 129.471 166.394 129.112C167.202 128.746 167.986 128.562 168.744 128.562C170.036 128.562 170.973 128.904 171.557 129.587C172.148 130.271 172.444 131.221 172.444 132.437V142H170.344V133.987C170.344 133.087 170.294 132.362 170.194 131.812C170.094 131.254 169.886 130.85 169.569 130.6C169.252 130.342 168.761 130.212 168.094 130.212C167.577 130.212 167.09 130.325 166.632 130.55C166.182 130.775 165.777 131.058 165.419 131.4C165.069 131.733 164.777 132.071 164.544 132.412V142H162.444ZM187.884 141.337C187.434 141.637 186.889 141.871 186.247 142.038C185.605 142.204 184.976 142.288 184.359 142.288C182.943 142.288 181.851 141.917 181.084 141.175C180.318 140.433 179.934 139.479 179.934 138.312V130.462H176.909V128.837H179.934V125.85L182.034 125.6V128.837H186.584L186.334 130.462H182.034V138.287C182.034 139.021 182.226 139.579 182.609 139.962C183.001 140.346 183.647 140.537 184.547 140.537C185.039 140.537 185.493 140.479 185.909 140.362C186.326 140.246 186.714 140.096 187.072 139.912L187.884 141.337Z" fill="#FDD500"/>
</g>
<defs>
<clipPath id="clip0_21_3">
<rect width="700" height="300" fill="white"/>
</clipPath>
</defs>
</svg>
