<svg width="700" height="300" viewBox="0 0 700 300" fill="none" xmlns="http://www.w3.org/2000/svg">
<g clip-path="url(#clip0_23_109)">
<rect width="700" height="300" fill="#102749"/>
<path d="M67.9375 56.125C67.9375 56.65 68.025 57.0333 68.2 57.275C68.375 57.5167 68.6458 57.6958 69.0125 57.8125L68.5 59.2875C67.9333 59.2125 67.4375 59.0333 67.0125 58.75C66.5875 58.4583 66.2792 58.0208 66.0875 57.4375C65.6125 58.0458 65.0208 58.5083 64.3125 58.825C63.6042 59.1333 62.8208 59.2875 61.9625 59.2875C60.6458 59.2875 59.6083 58.9167 58.85 58.175C58.0917 57.4333 57.7125 56.45 57.7125 55.225C57.7125 53.8667 58.2417 52.825 59.3 52.1C60.3583 51.375 61.8875 51.0125 63.8875 51.0125H65.825V49.9125C65.825 48.9625 65.5458 48.2917 64.9875 47.9C64.4375 47.5 63.6708 47.3 62.6875 47.3C62.2542 47.3 61.7458 47.3542 61.1625 47.4625C60.5792 47.5625 59.9458 47.7333 59.2625 47.975L58.7125 46.3875C59.5208 46.0875 60.2792 45.875 60.9875 45.75C61.6958 45.625 62.3708 45.5625 63.0125 45.5625C64.6542 45.5625 65.8833 45.9458 66.7 46.7125C67.525 47.4708 67.9375 48.5042 67.9375 49.8125V56.125ZM62.5 57.6875C63.15 57.6875 63.7708 57.525 64.3625 57.2C64.9542 56.8667 65.4417 56.4083 65.825 55.825V52.4375H63.925C62.475 52.4375 61.45 52.6875 60.85 53.1875C60.2583 53.6875 59.9625 54.3583 59.9625 55.2C59.9625 56.0167 60.1708 56.6375 60.5875 57.0625C61.0125 57.4792 61.65 57.6875 62.5 57.6875ZM73.5027 59V45.8375H75.2902L75.4527 47.6625C75.9861 46.9875 76.6527 46.4708 77.4527 46.1125C78.2611 45.7458 79.0444 45.5625 79.8027 45.5625C81.0944 45.5625 82.0319 45.9042 82.6152 46.5875C83.2069 47.2708 83.5027 48.2208 83.5027 49.4375V59H81.4027V50.9875C81.4027 50.0875 81.3527 49.3625 81.2527 48.8125C81.1527 48.2542 80.9444 47.85 80.6277 47.6C80.3111 47.3417 79.8194 47.2125 79.1527 47.2125C78.6361 47.2125 78.1486 47.325 77.6902 47.55C77.2402 47.775 76.8361 48.0583 76.4777 48.4C76.1277 48.7333 75.8361 49.0708 75.6027 49.4125V59H73.5027ZM99.193 44.4375L99.843 46.4125C99.2846 46.5875 98.6888 46.6958 98.0555 46.7375C97.4221 46.7792 96.7346 46.8 95.993 46.8C96.7513 47.15 97.3221 47.6042 97.7055 48.1625C98.0888 48.7125 98.2805 49.3625 98.2805 50.1125C98.2805 50.9792 98.0846 51.75 97.693 52.425C97.3013 53.1 96.7346 53.6292 95.993 54.0125C95.2596 54.3958 94.3721 54.5875 93.3305 54.5875C92.8888 54.5875 92.518 54.5667 92.218 54.525C91.9263 54.4833 91.643 54.4208 91.368 54.3375C91.168 54.4708 91.0013 54.6542 90.868 54.8875C90.743 55.1208 90.6805 55.3625 90.6805 55.6125C90.6805 55.9292 90.8055 56.1917 91.0555 56.4C91.3055 56.6083 91.768 56.7125 92.443 56.7125H94.818C95.7013 56.7125 96.493 56.8708 97.193 57.1875C97.9013 57.5042 98.4555 57.9292 98.8555 58.4625C99.2638 58.9958 99.468 59.6042 99.468 60.2875C99.468 61.5792 98.918 62.5708 97.818 63.2625C96.7263 63.9542 95.1805 64.3 93.1805 64.3C91.7805 64.3 90.6763 64.1542 89.868 63.8625C89.0596 63.5792 88.4805 63.1417 88.1305 62.55C87.7888 61.9667 87.618 61.2292 87.618 60.3375H89.518C89.518 60.8458 89.618 61.2667 89.818 61.6C90.018 61.9333 90.3805 62.1792 90.9055 62.3375C91.4305 62.5042 92.1846 62.5875 93.168 62.5875C94.1346 62.5875 94.9221 62.5042 95.5305 62.3375C96.1471 62.1792 96.6013 61.9375 96.893 61.6125C97.193 61.2958 97.343 60.9 97.343 60.425C97.343 59.8 97.0596 59.3292 96.493 59.0125C95.9263 58.6958 95.218 58.5375 94.368 58.5375H92.018C90.8846 58.5375 90.0471 58.2875 89.5055 57.7875C88.9721 57.2875 88.7055 56.7125 88.7055 56.0625C88.7055 55.6375 88.8263 55.225 89.068 54.825C89.318 54.425 89.6805 54.0708 90.1555 53.7625C89.3971 53.3625 88.8388 52.8667 88.4805 52.275C88.1221 51.6833 87.943 50.9667 87.943 50.125C87.943 49.2333 88.1638 48.4458 88.6055 47.7625C89.0471 47.0708 89.6638 46.5292 90.4555 46.1375C91.2471 45.7458 92.1596 45.55 93.193 45.55C94.3013 45.5417 95.2013 45.4958 95.893 45.4125C96.5846 45.3208 97.1763 45.1917 97.668 45.025C98.168 44.8583 98.6763 44.6625 99.193 44.4375ZM93.193 47.0875C92.1346 47.0875 91.3513 47.375 90.843 47.95C90.343 48.5167 90.093 49.2417 90.093 50.125C90.093 51.0167 90.3513 51.75 90.868 52.325C91.3846 52.9 92.1763 53.1875 93.243 53.1875C94.1763 53.1875 94.8846 52.9167 95.368 52.375C95.8596 51.8333 96.1055 51.0792 96.1055 50.1125C96.1055 49.1208 95.8596 48.3708 95.368 47.8625C94.8846 47.3458 94.1596 47.0875 93.193 47.0875ZM114.508 45.8375L108.583 51.7625L115.196 59H112.433L105.958 51.8125L111.783 45.8375H114.508ZM105.721 40.275V59H103.621V40.5375L105.721 40.275ZM127.898 56.125C127.898 56.65 127.986 57.0333 128.161 57.275C128.336 57.5167 128.607 57.6958 128.973 57.8125L128.461 59.2875C127.894 59.2125 127.398 59.0333 126.973 58.75C126.548 58.4583 126.24 58.0208 126.048 57.4375C125.573 58.0458 124.982 58.5083 124.273 58.825C123.565 59.1333 122.782 59.2875 121.923 59.2875C120.607 59.2875 119.569 58.9167 118.811 58.175C118.053 57.4333 117.673 56.45 117.673 55.225C117.673 53.8667 118.203 52.825 119.261 52.1C120.319 51.375 121.848 51.0125 123.848 51.0125H125.786V49.9125C125.786 48.9625 125.507 48.2917 124.948 47.9C124.398 47.5 123.632 47.3 122.648 47.3C122.215 47.3 121.707 47.3542 121.123 47.4625C120.54 47.5625 119.907 47.7333 119.223 47.975L118.673 46.3875C119.482 46.0875 120.24 45.875 120.948 45.75C121.657 45.625 122.332 45.5625 122.973 45.5625C124.615 45.5625 125.844 45.9458 126.661 46.7125C127.486 47.4708 127.898 48.5042 127.898 49.8125V56.125ZM122.461 57.6875C123.111 57.6875 123.732 57.525 124.323 57.2C124.915 56.8667 125.403 56.4083 125.786 55.825V52.4375H123.886C122.436 52.4375 121.411 52.6875 120.811 53.1875C120.219 53.6875 119.923 54.3583 119.923 55.2C119.923 56.0167 120.132 56.6375 120.548 57.0625C120.973 57.4792 121.611 57.6875 122.461 57.6875ZM180.522 61.8875V38.6125H186.784V40.425H182.509V60.1H186.784V61.8875H180.522ZM213.402 54.8875C213.977 54.8875 214.457 55.0833 214.84 55.475C215.232 55.8667 215.427 56.3375 215.427 56.8875C215.427 57.1875 215.39 57.4917 215.315 57.8C215.248 58.1083 215.123 58.4583 214.94 58.85L212.915 63.4875H211.015L212.215 58.55C211.965 58.3667 211.765 58.1292 211.615 57.8375C211.473 57.5375 211.402 57.2208 211.402 56.8875C211.402 56.3292 211.594 55.8583 211.977 55.475C212.361 55.0833 212.836 54.8875 213.402 54.8875ZM243.383 54.8875C243.958 54.8875 244.437 55.0833 244.82 55.475C245.212 55.8667 245.408 56.3375 245.408 56.8875C245.408 57.1875 245.37 57.4917 245.295 57.8C245.229 58.1083 245.104 58.4583 244.92 58.85L242.895 63.4875H240.995L242.195 58.55C241.945 58.3667 241.745 58.1292 241.595 57.8375C241.454 57.5375 241.383 57.2208 241.383 56.8875C241.383 56.3292 241.574 55.8583 241.958 55.475C242.341 55.0833 242.816 54.8875 243.383 54.8875ZM273.363 54.8875C273.938 54.8875 274.417 55.0833 274.801 55.475C275.192 55.8667 275.388 56.3375 275.388 56.8875C275.388 57.1875 275.351 57.4917 275.276 57.8C275.209 58.1083 275.084 58.4583 274.901 58.85L272.876 63.4875H270.976L272.176 58.55C271.926 58.3667 271.726 58.1292 271.576 57.8375C271.434 57.5375 271.363 57.2208 271.363 56.8875C271.363 56.3292 271.555 55.8583 271.938 55.475C272.322 55.0833 272.797 54.8875 273.363 54.8875ZM306.244 38.6125V61.8875H299.981V60.1125H304.256V40.425H299.981V38.6125H306.244Z" fill="white"/>
<path d="M158.304 47.95V49.7625H148.579V47.95H158.304ZM158.304 52.6875V54.5125H148.579V52.6875H158.304ZM200.25 41.7875V58.5H198.15V44.0625L194.2 46.4625L193.287 44.9625L198.412 41.7875H200.25ZM203.85 57.2875V59H193.912V57.2875H203.85ZM227.63 41.5125C228.713 41.5125 229.638 41.7208 230.405 42.1375C231.18 42.5542 231.776 43.125 232.193 43.85C232.609 44.575 232.818 45.3958 232.818 46.3125C232.818 47.1042 232.68 47.8792 232.405 48.6375C232.13 49.3875 231.688 50.1792 231.08 51.0125C230.48 51.8375 229.688 52.7542 228.705 53.7625C227.73 54.7708 226.53 55.9208 225.105 57.2125H233.218L232.955 59H222.718V57.2875C224.018 56.0458 225.122 54.9583 226.03 54.025C226.947 53.0917 227.701 52.275 228.293 51.575C228.893 50.8667 229.359 50.225 229.693 49.65C230.034 49.075 230.272 48.5292 230.405 48.0125C230.538 47.4875 230.605 46.9458 230.605 46.3875C230.605 45.4208 230.33 44.6583 229.78 44.1C229.238 43.5417 228.488 43.2625 227.53 43.2625C226.68 43.2625 225.984 43.4083 225.443 43.7C224.901 43.9917 224.359 44.4583 223.818 45.1L222.368 43.975C223.051 43.1417 223.809 42.525 224.643 42.125C225.476 41.7167 226.472 41.5125 227.63 41.5125ZM257.586 41.5125C258.669 41.5125 259.602 41.7083 260.386 42.1C261.177 42.4833 261.79 43.0042 262.223 43.6625C262.656 44.3125 262.873 45.0292 262.873 45.8125C262.873 46.5042 262.719 47.1333 262.411 47.7C262.102 48.2667 261.694 48.7333 261.186 49.1C260.677 49.4667 260.119 49.7083 259.511 49.825C260.186 49.875 260.819 50.0667 261.411 50.4C262.002 50.725 262.486 51.1917 262.861 51.8C263.236 52.4 263.423 53.1458 263.423 54.0375C263.423 55.0292 263.173 55.925 262.673 56.725C262.173 57.5167 261.473 58.1417 260.573 58.6C259.681 59.0583 258.64 59.2875 257.448 59.2875C256.49 59.2875 255.531 59.1042 254.573 58.7375C253.623 58.3708 252.819 57.7875 252.161 56.9875L253.573 55.8375C254.065 56.4125 254.648 56.8417 255.323 57.125C256.006 57.4083 256.698 57.55 257.398 57.55C258.598 57.55 259.536 57.2375 260.211 56.6125C260.886 55.9792 261.223 55.1208 261.223 54.0375C261.223 53.2208 261.065 52.575 260.748 52.1C260.44 51.625 260.019 51.2875 259.486 51.0875C258.952 50.8792 258.344 50.775 257.661 50.775H256.211L256.473 49.1125H257.486C258.044 49.1125 258.569 49.0083 259.061 48.8C259.561 48.5833 259.969 48.25 260.286 47.8C260.602 47.35 260.761 46.7875 260.761 46.1125C260.761 45.1625 260.444 44.4375 259.811 43.9375C259.177 43.4375 258.411 43.1875 257.511 43.1875C256.761 43.1875 256.106 43.3208 255.548 43.5875C254.99 43.8458 254.427 44.2417 253.861 44.775L252.698 43.4875C253.431 42.7958 254.211 42.2958 255.036 41.9875C255.861 41.6708 256.711 41.5125 257.586 41.5125ZM287.704 41.5125L289.454 42.25L284.879 53.1375H294.066V54.8125H282.654V53.2875L287.704 41.5125ZM291.841 48.25V59H289.816L289.804 53.5375L290.091 48.25H291.841Z" fill="#00E0E0"/>
<rect x="11" y="97" width="29.6462" height="8" fill="#E22727"/>
<path d="M52 101.5L40.6462 112.325V90.6747L52 101.5Z" fill="#E22727"/>
<line x1="483.5" x2="483.5" y2="300" stroke="#3A4061"/>
<line x1="-0.000517597" y1="209.5" x2="483" y2="209" stroke="#3A4061"/>
<rect x="417" y="215" width="61" height="20" rx="4" fill="#404040"/>
<path d="M429.427 220.361L429.973 230H428.804L428.503 224.967C428.489 224.626 428.475 224.281 428.461 223.931C428.447 223.581 428.438 223.245 428.433 222.923C428.428 222.601 428.426 222.314 428.426 222.062C428.426 221.81 428.426 221.614 428.426 221.474L426.802 228.271H425.584L423.841 221.474C423.846 221.609 423.85 221.81 423.855 222.076C423.86 222.337 423.862 222.634 423.862 222.965C423.867 223.296 423.864 223.637 423.855 223.987C423.85 224.332 423.841 224.654 423.827 224.953L423.568 230H422.427L422.973 220.361H424.667L426.228 226.962L427.719 220.361H429.427ZM432.726 226.731C432.749 227.3 432.859 227.767 433.055 228.131C433.251 228.49 433.51 228.756 433.832 228.929C434.154 229.097 434.504 229.181 434.882 229.181C435.26 229.181 435.6 229.125 435.904 229.013C436.212 228.901 436.527 228.735 436.849 228.516L437.402 229.293C437.056 229.564 436.662 229.776 436.219 229.93C435.78 230.084 435.33 230.161 434.868 230.161C434.154 230.161 433.545 230 433.041 229.678C432.537 229.356 432.152 228.908 431.886 228.334C431.624 227.755 431.494 227.086 431.494 226.325C431.494 225.578 431.627 224.916 431.893 224.337C432.159 223.758 432.532 223.303 433.013 222.972C433.493 222.641 434.06 222.475 434.714 222.475C435.334 222.475 435.869 222.622 436.317 222.916C436.765 223.205 437.108 223.621 437.346 224.162C437.588 224.699 437.71 225.34 437.71 226.087C437.71 226.213 437.707 226.332 437.703 226.444C437.698 226.551 437.691 226.647 437.682 226.731H432.726ZM434.728 223.441C434.182 223.441 433.724 223.635 433.356 224.022C432.992 224.409 432.784 225.009 432.733 225.821H436.576C436.562 225.032 436.389 224.44 436.058 224.043C435.726 223.642 435.283 223.441 434.728 223.441ZM445.054 222.475C445.292 222.475 445.518 222.526 445.733 222.629C445.952 222.732 446.132 222.93 446.272 223.224C446.412 223.518 446.482 223.947 446.482 224.512V230H445.39V224.701C445.39 224.239 445.362 223.905 445.306 223.7C445.25 223.495 445.089 223.392 444.823 223.392C444.604 223.392 444.384 223.462 444.165 223.602C443.95 223.737 443.74 223.961 443.535 224.274V230H442.436V224.701C442.436 224.239 442.408 223.905 442.352 223.7C442.296 223.495 442.135 223.392 441.869 223.392C441.64 223.392 441.419 223.462 441.204 223.602C440.994 223.737 440.786 223.961 440.581 224.274V230H439.496V222.629H440.42L440.49 223.483C440.691 223.198 440.915 222.96 441.162 222.769C441.414 222.573 441.724 222.475 442.093 222.475C442.373 222.475 442.637 222.543 442.884 222.678C443.131 222.809 443.313 223.065 443.43 223.448C443.631 223.159 443.857 222.925 444.109 222.748C444.361 222.566 444.676 222.475 445.054 222.475ZM451.398 222.475C452.093 222.475 452.674 222.634 453.141 222.951C453.612 223.264 453.964 223.707 454.198 224.281C454.436 224.855 454.555 225.532 454.555 226.311C454.555 227.062 454.433 227.727 454.191 228.306C453.948 228.885 453.591 229.34 453.12 229.671C452.653 229.998 452.074 230.161 451.384 230.161C450.693 230.161 450.112 230.002 449.641 229.685C449.169 229.368 448.812 228.922 448.57 228.348C448.332 227.769 448.213 227.095 448.213 226.325C448.213 225.564 448.334 224.895 448.577 224.316C448.819 223.737 449.176 223.287 449.648 222.965C450.124 222.638 450.707 222.475 451.398 222.475ZM451.398 223.434C450.763 223.434 450.282 223.67 449.956 224.141C449.634 224.608 449.473 225.336 449.473 226.325C449.473 227.296 449.631 228.017 449.949 228.488C450.271 228.959 450.749 229.195 451.384 229.195C452.018 229.195 452.494 228.959 452.812 228.488C453.134 228.017 453.295 227.291 453.295 226.311C453.295 225.331 453.136 224.608 452.819 224.141C452.501 223.67 452.028 223.434 451.398 223.434ZM457.055 230V229.097H458.203V223.532H457.055V222.629H459.099L459.316 224.372C459.601 223.765 459.946 223.296 460.352 222.965C460.758 222.634 461.295 222.468 461.962 222.468C462.167 222.468 462.349 222.484 462.508 222.517C462.671 222.545 462.837 222.582 463.005 222.629L462.662 223.679C462.508 223.637 462.368 223.607 462.242 223.588C462.116 223.565 461.971 223.553 461.808 223.553C461.243 223.553 460.758 223.754 460.352 224.155C459.946 224.556 459.622 225.163 459.379 225.975V229.097H460.877V230H457.055ZM461.871 225.121V223.518L461.99 222.629H463.005L462.837 225.121H461.871ZM471.512 222.629L468.922 230.049C468.749 230.548 468.53 231.006 468.264 231.421C468.002 231.836 467.659 232.179 467.235 232.45C466.815 232.725 466.28 232.896 465.632 232.961L465.45 232.023C465.958 231.939 466.36 231.811 466.654 231.638C466.948 231.465 467.179 231.244 467.347 230.973C467.519 230.702 467.671 230.378 467.802 230H467.41L464.834 222.629H466.094L468.208 229.104L470.294 222.629H471.512Z" fill="white"/>
<rect x="632" y="6" width="61" height="20" rx="4" fill="#404040"/>
<path d="M644.749 16.191C644.749 17.1617 644.616 18.0227 644.35 18.774C644.089 19.5207 643.694 20.1063 643.167 20.531C642.64 20.951 641.984 21.161 641.2 21.161C640.421 21.161 639.765 20.9557 639.233 20.545C638.706 20.1297 638.309 19.551 638.043 18.809C637.782 18.067 637.651 17.199 637.651 16.205C637.651 15.2297 637.782 14.3663 638.043 13.615C638.309 12.8637 638.706 12.2757 639.233 11.851C639.765 11.4217 640.421 11.207 641.2 11.207C641.984 11.207 642.64 11.4147 643.167 11.83C643.694 12.2453 644.089 12.8263 644.35 13.573C644.616 14.3197 644.749 15.1923 644.749 16.191ZM643.475 16.191C643.475 14.9077 643.298 13.9253 642.943 13.244C642.593 12.5627 642.012 12.222 641.2 12.222C640.388 12.222 639.805 12.565 639.45 13.251C639.1 13.937 638.925 14.9217 638.925 16.205C638.925 17.4883 639.107 18.466 639.471 19.138C639.835 19.8053 640.411 20.139 641.2 20.139C642.012 20.139 642.593 19.803 642.943 19.131C643.298 18.4543 643.475 17.4743 643.475 16.191ZM647.978 13.629V18.851C647.978 19.3363 648.078 19.6863 648.279 19.901C648.479 20.1157 648.792 20.223 649.217 20.223C649.623 20.223 650.005 20.1087 650.365 19.88C650.729 19.6467 651.011 19.3713 651.212 19.054V13.629H652.388V21H651.387L651.289 20.006C650.999 20.3793 650.642 20.6663 650.218 20.867C649.793 21.063 649.364 21.161 648.93 21.161C648.216 21.161 647.681 20.972 647.327 20.594C646.977 20.2113 646.802 19.677 646.802 18.991V13.629H647.978ZM661.048 20.629C660.796 20.797 660.49 20.9277 660.131 21.021C659.772 21.1143 659.419 21.161 659.074 21.161C658.281 21.161 657.669 20.9533 657.24 20.538C656.811 20.1227 656.596 19.5883 656.596 18.935V14.539H654.902V13.629H656.596V11.956L657.772 11.816V13.629H660.32L660.18 14.539H657.772V18.921C657.772 19.3317 657.879 19.6443 658.094 19.859C658.313 20.0737 658.675 20.181 659.179 20.181C659.454 20.181 659.709 20.1483 659.942 20.083C660.175 20.0177 660.392 19.9337 660.593 19.831L661.048 20.629ZM666.888 13.475C667.541 13.475 668.061 13.6337 668.449 13.951C668.841 14.2683 669.123 14.7163 669.296 15.295C669.468 15.869 669.555 16.541 669.555 17.311C669.555 18.053 669.45 18.7157 669.24 19.299C669.034 19.8777 668.722 20.3327 668.302 20.664C667.882 20.9953 667.352 21.161 666.713 21.161C665.905 21.161 665.257 20.8763 664.767 20.307V23.821L663.591 23.968V13.629H664.592L664.69 14.658C664.96 14.28 665.282 13.9883 665.656 13.783C666.034 13.5777 666.444 13.475 666.888 13.475ZM666.608 14.42C666.202 14.42 665.842 14.5437 665.53 14.791C665.222 15.0337 664.967 15.3043 664.767 15.603V19.257C664.958 19.5417 665.198 19.768 665.488 19.936C665.782 20.0993 666.104 20.181 666.454 20.181C667.065 20.181 667.525 19.9477 667.833 19.481C668.141 19.0143 668.295 18.2887 668.295 17.304C668.295 16.66 668.234 16.1257 668.113 15.701C667.991 15.2717 667.807 14.952 667.56 14.742C667.312 14.5273 666.995 14.42 666.608 14.42ZM673.161 13.629V18.851C673.161 19.3363 673.261 19.6863 673.462 19.901C673.663 20.1157 673.975 20.223 674.4 20.223C674.806 20.223 675.189 20.1087 675.548 19.88C675.912 19.6467 676.194 19.3713 676.395 19.054V13.629H677.571V21H676.57L676.472 20.006C676.183 20.3793 675.826 20.6663 675.401 20.867C674.976 21.063 674.547 21.161 674.113 21.161C673.399 21.161 672.865 20.972 672.51 20.594C672.16 20.2113 671.985 19.677 671.985 18.991V13.629H673.161ZM686.232 20.629C685.98 20.797 685.674 20.9277 685.315 21.021C684.955 21.1143 684.603 21.161 684.258 21.161C683.464 21.161 682.853 20.9533 682.424 20.538C681.994 20.1227 681.78 19.5883 681.78 18.935V14.539H680.086V13.629H681.78V11.956L682.956 11.816V13.629H685.504L685.364 14.539H682.956V18.921C682.956 19.3317 683.063 19.6443 683.278 19.859C683.497 20.0737 683.859 20.181 684.363 20.181C684.638 20.181 684.892 20.1483 685.126 20.083C685.359 20.0177 685.576 19.9337 685.777 19.831L686.232 20.629Z" fill="white"/>
<path d="M65.2875 90.275C65.9958 90.275 66.6375 90.3375 67.2125 90.4625C67.7875 90.5875 68.3333 90.7625 68.85 90.9875L68.175 92.55C67.75 92.3667 67.3 92.2292 66.825 92.1375C66.35 92.0458 65.8583 92 65.35 92C64.4333 92 63.7417 92.1792 63.275 92.5375C62.8167 92.8958 62.5875 93.4458 62.5875 94.1875V96.8625H67.05L66.825 98.5125H62.5875V109H60.4875V98.5125H57.35V96.8625H60.4875V94.2375C60.4875 93.4208 60.6958 92.7167 61.1125 92.125C61.5375 91.5333 62.1125 91.0792 62.8375 90.7625C63.5625 90.4375 64.3792 90.275 65.2875 90.275ZM77.5152 95.5625C78.7569 95.5625 79.7944 95.8458 80.6277 96.4125C81.4694 96.9708 82.0986 97.7625 82.5152 98.7875C82.9402 99.8125 83.1527 101.021 83.1527 102.412C83.1527 103.754 82.9361 104.942 82.5027 105.975C82.0694 107.008 81.4319 107.821 80.5902 108.412C79.7569 108.996 78.7236 109.288 77.4902 109.288C76.2569 109.288 75.2194 109.004 74.3777 108.437C73.5361 107.871 72.8986 107.075 72.4652 106.05C72.0402 105.017 71.8277 103.812 71.8277 102.437C71.8277 101.079 72.0444 99.8833 72.4777 98.85C72.9111 97.8167 73.5486 97.0125 74.3902 96.4375C75.2402 95.8542 76.2819 95.5625 77.5152 95.5625ZM77.5152 97.275C76.3819 97.275 75.5236 97.6958 74.9402 98.5375C74.3652 99.3708 74.0777 100.671 74.0777 102.437C74.0777 104.171 74.3611 105.458 74.9277 106.3C75.5027 107.142 76.3569 107.562 77.4902 107.562C78.6236 107.562 79.4736 107.142 80.0402 106.3C80.6152 105.458 80.9027 104.162 80.9027 102.412C80.9027 100.662 80.6194 99.3708 80.0527 98.5375C79.4861 97.6958 78.6402 97.275 77.5152 97.275ZM87.618 109V107.387H89.668V97.45H87.618V95.8375H91.268L91.6555 98.95C92.1638 97.8667 92.7805 97.0292 93.5055 96.4375C94.2305 95.8458 95.1888 95.55 96.3805 95.55C96.7471 95.55 97.0721 95.5792 97.3555 95.6375C97.6471 95.6875 97.943 95.7542 98.243 95.8375L97.6305 97.7125C97.3555 97.6375 97.1055 97.5833 96.8805 97.55C96.6555 97.5083 96.3971 97.4875 96.1055 97.4875C95.0971 97.4875 94.2305 97.8458 93.5055 98.5625C92.7805 99.2792 92.2013 100.362 91.768 101.812V107.387H94.443V109H87.618ZM96.218 100.287V97.425L96.4305 95.8375H98.243L97.943 100.287H96.218ZM154.116 95.8375V107.337H157.829V109H147.954V107.337H152.016V97.5H148.079V95.8375H154.116ZM152.441 89.675C152.908 89.675 153.279 89.8167 153.554 90.1C153.837 90.3833 153.979 90.7292 153.979 91.1375C153.979 91.5625 153.837 91.9208 153.554 92.2125C153.279 92.4958 152.908 92.6375 152.441 92.6375C152 92.6375 151.637 92.4958 151.354 92.2125C151.071 91.9208 150.929 91.5625 150.929 91.1375C150.929 90.7292 151.071 90.3833 151.354 90.1C151.637 89.8167 152 89.675 152.441 89.675ZM162.444 109V95.8375H164.232L164.394 97.6625C164.927 96.9875 165.594 96.4708 166.394 96.1125C167.202 95.7458 167.986 95.5625 168.744 95.5625C170.036 95.5625 170.973 95.9042 171.557 96.5875C172.148 97.2708 172.444 98.2208 172.444 99.4375V109H170.344V100.987C170.344 100.087 170.294 99.3625 170.194 98.8125C170.094 98.2542 169.886 97.85 169.569 97.6C169.252 97.3417 168.761 97.2125 168.094 97.2125C167.577 97.2125 167.09 97.325 166.632 97.55C166.182 97.775 165.777 98.0583 165.419 98.4C165.069 98.7333 164.777 99.0708 164.544 99.4125V109H162.444ZM270.326 107.25C270.326 106.708 270.517 106.237 270.901 105.837C271.292 105.437 271.772 105.237 272.338 105.237C272.922 105.237 273.405 105.437 273.788 105.837C274.18 106.237 274.376 106.708 274.376 107.25C274.376 107.817 274.18 108.3 273.788 108.7C273.405 109.092 272.922 109.288 272.338 109.288C271.772 109.288 271.292 109.092 270.901 108.7C270.517 108.3 270.326 107.817 270.326 107.25ZM270.326 98.2375C270.326 97.8542 270.413 97.5125 270.588 97.2125C270.763 96.9125 271.005 96.675 271.313 96.5C271.622 96.3167 271.963 96.225 272.338 96.225C272.922 96.225 273.405 96.4208 273.788 96.8125C274.18 97.2042 274.376 97.6792 274.376 98.2375C274.376 98.7875 274.18 99.2667 273.788 99.675C273.405 100.075 272.922 100.275 272.338 100.275C271.772 100.275 271.292 100.075 270.901 99.675C270.517 99.2667 270.326 98.7875 270.326 98.2375Z" fill="#00E0E0"/>
<path d="M124.136 95.8375V107.337H127.848V109H117.973V107.337H122.036V97.5H118.098V95.8375H124.136ZM122.461 89.675C122.928 89.675 123.298 89.8167 123.573 90.1C123.857 90.3833 123.998 90.7292 123.998 91.1375C123.998 91.5625 123.857 91.9208 123.573 92.2125C123.298 92.4958 122.928 92.6375 122.461 92.6375C122.019 92.6375 121.657 92.4958 121.373 92.2125C121.09 91.9208 120.948 91.5625 120.948 91.1375C120.948 90.7292 121.09 90.3833 121.373 90.1C121.657 89.8167 122.019 89.675 122.461 89.675ZM195.225 133.25C195.225 134.55 195.337 135.717 195.562 136.75C195.787 137.775 196.12 138.717 196.562 139.575C197.004 140.425 197.558 141.233 198.225 142C198.9 142.775 199.683 143.558 200.575 144.35L199.475 145.5C198.125 144.392 196.966 143.258 196 142.1C195.041 140.942 194.304 139.65 193.787 138.225C193.279 136.8 193.025 135.142 193.025 133.25C193.025 131.35 193.279 129.687 193.787 128.262C194.304 126.837 195.041 125.546 196 124.387C196.966 123.229 198.125 122.1 199.475 121L200.575 122.15C199.675 122.95 198.887 123.737 198.212 124.512C197.545 125.279 196.991 126.087 196.55 126.937C196.108 127.779 195.775 128.717 195.55 129.75C195.333 130.775 195.225 131.942 195.225 133.25ZM214.077 128.837V140.337H217.79V142H207.915V140.337H211.977V130.5H208.04V128.837H214.077ZM212.402 122.675C212.869 122.675 213.24 122.817 213.515 123.1C213.798 123.383 213.94 123.729 213.94 124.137C213.94 124.562 213.798 124.921 213.515 125.212C213.24 125.496 212.869 125.637 212.402 125.637C211.961 125.637 211.598 125.496 211.315 125.212C211.032 124.921 210.89 124.562 210.89 124.137C210.89 123.729 211.032 123.383 211.315 123.1C211.598 122.817 211.961 122.675 212.402 122.675ZM229.58 133.25C229.58 131.942 229.468 130.775 229.243 129.75C229.026 128.717 228.697 127.779 228.255 126.937C227.813 126.087 227.255 125.279 226.58 124.512C225.913 123.737 225.13 122.95 224.23 122.15L225.33 121C226.688 122.1 227.847 123.229 228.805 124.387C229.763 125.546 230.497 126.837 231.005 128.262C231.522 129.687 231.78 131.35 231.78 133.25C231.78 135.142 231.522 136.8 231.005 138.225C230.497 139.65 229.763 140.942 228.805 142.1C227.847 143.258 226.688 144.392 225.33 145.5L224.23 144.35C225.122 143.558 225.901 142.775 226.568 142C227.243 141.233 227.801 140.425 228.243 139.575C228.684 138.717 229.018 137.775 229.243 136.75C229.468 135.717 229.58 134.55 229.58 133.25Z" fill="white"/>
<path d="M201.85 106.125C201.85 106.65 201.937 107.033 202.112 107.275C202.287 107.517 202.558 107.696 202.925 107.812L202.412 109.288C201.845 109.213 201.35 109.033 200.925 108.75C200.5 108.458 200.191 108.021 200 107.438C199.525 108.046 198.933 108.508 198.225 108.825C197.516 109.133 196.733 109.288 195.875 109.288C194.558 109.288 193.52 108.917 192.762 108.175C192.004 107.433 191.625 106.45 191.625 105.225C191.625 103.867 192.154 102.825 193.212 102.1C194.27 101.375 195.8 101.012 197.8 101.012H199.737V99.9125C199.737 98.9625 199.458 98.2917 198.9 97.9C198.35 97.5 197.583 97.3 196.6 97.3C196.166 97.3 195.658 97.3542 195.075 97.4625C194.491 97.5625 193.858 97.7333 193.175 97.975L192.625 96.3875C193.433 96.0875 194.191 95.875 194.9 95.75C195.608 95.625 196.283 95.5625 196.925 95.5625C198.566 95.5625 199.795 95.9458 200.612 96.7125C201.437 97.4708 201.85 98.5042 201.85 99.8125V106.125ZM196.412 107.687C197.062 107.687 197.683 107.525 198.275 107.2C198.866 106.867 199.354 106.408 199.737 105.825V102.437H197.837C196.387 102.437 195.362 102.687 194.762 103.187C194.17 103.687 193.875 104.358 193.875 105.2C193.875 106.017 194.083 106.637 194.5 107.062C194.925 107.479 195.562 107.687 196.412 107.687ZM207.415 109V95.8375H209.202L209.365 97.6625C209.898 96.9875 210.565 96.4708 211.365 96.1125C212.173 95.7458 212.957 95.5625 213.715 95.5625C215.007 95.5625 215.944 95.9042 216.527 96.5875C217.119 97.2708 217.415 98.2208 217.415 99.4375V109H215.315V100.987C215.315 100.087 215.265 99.3625 215.165 98.8125C215.065 98.2542 214.857 97.85 214.54 97.6C214.223 97.3417 213.732 97.2125 213.065 97.2125C212.548 97.2125 212.061 97.325 211.602 97.55C211.152 97.775 210.748 98.0583 210.39 98.4C210.04 98.7333 209.748 99.0708 209.515 99.4125V109H207.415ZM233.105 94.4375L233.755 96.4125C233.197 96.5875 232.601 96.6958 231.968 96.7375C231.334 96.7792 230.647 96.8 229.905 96.8C230.663 97.15 231.234 97.6042 231.618 98.1625C232.001 98.7125 232.193 99.3625 232.193 100.112C232.193 100.979 231.997 101.75 231.605 102.425C231.213 103.1 230.647 103.629 229.905 104.012C229.172 104.396 228.284 104.587 227.243 104.587C226.801 104.587 226.43 104.567 226.13 104.525C225.838 104.483 225.555 104.421 225.28 104.337C225.08 104.471 224.913 104.654 224.78 104.887C224.655 105.121 224.593 105.362 224.593 105.612C224.593 105.929 224.718 106.192 224.968 106.4C225.218 106.608 225.68 106.712 226.355 106.712H228.73C229.613 106.712 230.405 106.871 231.105 107.187C231.813 107.504 232.368 107.929 232.768 108.462C233.176 108.996 233.38 109.604 233.38 110.288C233.38 111.579 232.83 112.571 231.73 113.263C230.638 113.954 229.093 114.3 227.093 114.3C225.693 114.3 224.588 114.154 223.78 113.863C222.972 113.579 222.393 113.142 222.043 112.55C221.701 111.967 221.53 111.229 221.53 110.338H223.43C223.43 110.846 223.53 111.267 223.73 111.6C223.93 111.933 224.293 112.179 224.818 112.338C225.343 112.504 226.097 112.588 227.08 112.588C228.047 112.588 228.834 112.504 229.443 112.338C230.059 112.179 230.513 111.938 230.805 111.613C231.105 111.296 231.255 110.9 231.255 110.425C231.255 109.8 230.972 109.329 230.405 109.013C229.838 108.696 229.13 108.537 228.28 108.537H225.93C224.797 108.537 223.959 108.287 223.418 107.787C222.884 107.287 222.618 106.712 222.618 106.062C222.618 105.637 222.738 105.225 222.98 104.825C223.23 104.425 223.593 104.071 224.068 103.762C223.309 103.362 222.751 102.867 222.393 102.275C222.034 101.683 221.855 100.967 221.855 100.125C221.855 99.2333 222.076 98.4458 222.518 97.7625C222.959 97.0708 223.576 96.5292 224.368 96.1375C225.159 95.7458 226.072 95.55 227.105 95.55C228.213 95.5417 229.113 95.4958 229.805 95.4125C230.497 95.3208 231.088 95.1917 231.58 95.025C232.08 94.8583 232.588 94.6625 233.105 94.4375ZM227.105 97.0875C226.047 97.0875 225.263 97.375 224.755 97.95C224.255 98.5167 224.005 99.2417 224.005 100.125C224.005 101.017 224.263 101.75 224.78 102.325C225.297 102.9 226.088 103.187 227.155 103.187C228.088 103.187 228.797 102.917 229.28 102.375C229.772 101.833 230.018 101.079 230.018 100.112C230.018 99.1208 229.772 98.3708 229.28 97.8625C228.797 97.3458 228.072 97.0875 227.105 97.0875ZM248.42 95.8375L242.495 101.762L249.108 109H246.345L239.87 101.812L245.695 95.8375H248.42ZM239.633 90.275V109H237.533V90.5375L239.633 90.275ZM261.811 106.125C261.811 106.65 261.898 107.033 262.073 107.275C262.248 107.517 262.519 107.696 262.886 107.812L262.373 109.288C261.806 109.213 261.311 109.033 260.886 108.75C260.461 108.458 260.152 108.021 259.961 107.438C259.486 108.046 258.894 108.508 258.186 108.825C257.477 109.133 256.694 109.288 255.836 109.288C254.519 109.288 253.481 108.917 252.723 108.175C251.965 107.433 251.586 106.45 251.586 105.225C251.586 103.867 252.115 102.825 253.173 102.1C254.231 101.375 255.761 101.012 257.761 101.012H259.698V99.9125C259.698 98.9625 259.419 98.2917 258.861 97.9C258.311 97.5 257.544 97.3 256.561 97.3C256.127 97.3 255.619 97.3542 255.036 97.4625C254.452 97.5625 253.819 97.7333 253.136 97.975L252.586 96.3875C253.394 96.0875 254.152 95.875 254.861 95.75C255.569 95.625 256.244 95.5625 256.886 95.5625C258.527 95.5625 259.756 95.9458 260.573 96.7125C261.398 97.4708 261.811 98.5042 261.811 99.8125V106.125ZM256.373 107.687C257.023 107.687 257.644 107.525 258.236 107.2C258.827 106.867 259.315 106.408 259.698 105.825V102.437H257.798C256.348 102.437 255.323 102.687 254.723 103.187C254.131 103.687 253.836 104.358 253.836 105.2C253.836 106.017 254.044 106.637 254.461 107.062C254.886 107.479 255.523 107.687 256.373 107.687Z" fill="#FFA07A"/>
<path d="M123.361 128.562C124.528 128.562 125.457 128.846 126.148 129.412C126.848 129.979 127.353 130.779 127.661 131.812C127.969 132.837 128.123 134.037 128.123 135.412C128.123 136.737 127.936 137.921 127.561 138.962C127.194 139.996 126.636 140.808 125.886 141.4C125.136 141.992 124.19 142.288 123.048 142.288C121.607 142.288 120.448 141.779 119.573 140.762V147.038L117.473 147.3V128.837H119.261L119.436 130.675C119.919 130 120.494 129.479 121.161 129.112C121.836 128.746 122.569 128.562 123.361 128.562ZM122.861 130.25C122.136 130.25 121.494 130.471 120.936 130.912C120.386 131.346 119.932 131.829 119.573 132.362V138.887C119.915 139.396 120.344 139.8 120.861 140.1C121.386 140.392 121.961 140.537 122.586 140.537C123.678 140.537 124.498 140.121 125.048 139.287C125.598 138.454 125.873 137.158 125.873 135.4C125.873 134.25 125.765 133.296 125.548 132.537C125.332 131.771 125.003 131.2 124.561 130.825C124.119 130.442 123.553 130.25 122.861 130.25ZM132.589 142V140.387H134.639V130.45H132.589V128.837H136.239L136.626 131.95C137.135 130.867 137.751 130.029 138.476 129.438C139.201 128.846 140.16 128.55 141.351 128.55C141.718 128.55 142.043 128.579 142.326 128.637C142.618 128.687 142.914 128.754 143.214 128.837L142.601 130.712C142.326 130.637 142.076 130.583 141.851 130.55C141.626 130.508 141.368 130.487 141.076 130.487C140.068 130.487 139.201 130.846 138.476 131.562C137.751 132.279 137.172 133.362 136.739 134.812V140.387H139.414V142H132.589ZM141.189 133.287V130.425L141.401 128.837H143.214L142.914 133.287H141.189ZM154.116 128.837V140.337H157.829V142H147.954V140.337H152.016V130.5H148.079V128.837H154.116ZM152.441 122.675C152.908 122.675 153.279 122.817 153.554 123.1C153.837 123.383 153.979 123.729 153.979 124.137C153.979 124.562 153.837 124.921 153.554 125.212C153.279 125.496 152.908 125.637 152.441 125.637C152 125.637 151.637 125.496 151.354 125.212C151.071 124.921 150.929 124.562 150.929 124.137C150.929 123.729 151.071 123.383 151.354 123.1C151.637 122.817 152 122.675 152.441 122.675ZM162.444 142V128.837H164.232L164.394 130.662C164.927 129.987 165.594 129.471 166.394 129.112C167.202 128.746 167.986 128.562 168.744 128.562C170.036 128.562 170.973 128.904 171.557 129.587C172.148 130.271 172.444 131.221 172.444 132.437V142H170.344V133.987C170.344 133.087 170.294 132.362 170.194 131.812C170.094 131.254 169.886 130.85 169.569 130.6C169.252 130.342 168.761 130.212 168.094 130.212C167.577 130.212 167.09 130.325 166.632 130.55C166.182 130.775 165.777 131.058 165.419 131.4C165.069 131.733 164.777 132.071 164.544 132.412V142H162.444ZM187.884 141.337C187.434 141.637 186.889 141.871 186.247 142.038C185.605 142.204 184.976 142.288 184.359 142.288C182.943 142.288 181.851 141.917 181.084 141.175C180.318 140.433 179.934 139.479 179.934 138.312V130.462H176.909V128.837H179.934V125.85L182.034 125.6V128.837H186.584L186.334 130.462H182.034V138.287C182.034 139.021 182.226 139.579 182.609 139.962C183.001 140.346 183.647 140.537 184.547 140.537C185.039 140.537 185.493 140.479 185.909 140.362C186.326 140.246 186.714 140.096 187.072 139.912L187.884 141.337Z" fill="#FDD500"/>
<path d="M25.595 233.93C25.595 234.308 25.658 234.584 25.784 234.758C25.91 234.932 26.105 235.061 26.369 235.145L26 236.207C25.592 236.153 25.235 236.024 24.929 235.82C24.623 235.61 24.401 235.295 24.263 234.875C23.921 235.313 23.495 235.646 22.985 235.874C22.475 236.096 21.911 236.207 21.293 236.207C20.345 236.207 19.598 235.94 19.052 235.406C18.506 234.872 18.233 234.164 18.233 233.282C18.233 232.304 18.614 231.554 19.376 231.032C20.138 230.51 21.239 230.249 22.679 230.249H24.074V229.457C24.074 228.773 23.873 228.29 23.471 228.008C23.075 227.72 22.523 227.576 21.815 227.576C21.503 227.576 21.137 227.615 20.717 227.693C20.297 227.765 19.841 227.888 19.349 228.062L18.953 226.919C19.535 226.703 20.081 226.55 20.591 226.46C21.101 226.37 21.587 226.325 22.049 226.325C23.231 226.325 24.116 226.601 24.704 227.153C25.298 227.699 25.595 228.443 25.595 229.385V233.93ZM21.68 235.055C22.148 235.055 22.595 234.938 23.021 234.704C23.447 234.464 23.798 234.134 24.074 233.714V231.275H22.706C21.662 231.275 20.924 231.455 20.492 231.815C20.066 232.175 19.853 232.658 19.853 233.264C19.853 233.852 20.003 234.299 20.303 234.605C20.609 234.905 21.068 235.055 21.68 235.055ZM29.602 236V226.523H30.889L31.006 227.837C31.39 227.351 31.87 226.979 32.446 226.721C33.028 226.457 33.592 226.325 34.138 226.325C35.068 226.325 35.743 226.571 36.163 227.063C36.589 227.555 36.802 228.239 36.802 229.115V236H35.29V230.231C35.29 229.583 35.254 229.061 35.182 228.665C35.11 228.263 34.96 227.972 34.732 227.792C34.504 227.606 34.15 227.513 33.67 227.513C33.298 227.513 32.947 227.594 32.617 227.756C32.293 227.918 32.002 228.122 31.744 228.368C31.492 228.608 31.282 228.851 31.114 229.097V236H29.602ZM48.0989 225.515L48.5669 226.937C48.1649 227.063 47.7359 227.141 47.2799 227.171C46.8239 227.201 46.3289 227.216 45.7949 227.216C46.3409 227.468 46.7519 227.795 47.0279 228.197C47.3039 228.593 47.4419 229.061 47.4419 229.601C47.4419 230.225 47.3009 230.78 47.0189 231.266C46.7369 231.752 46.3289 232.133 45.7949 232.409C45.2669 232.685 44.6279 232.823 43.8779 232.823C43.5599 232.823 43.2929 232.808 43.0769 232.778C42.8669 232.748 42.6629 232.703 42.4649 232.643C42.3209 232.739 42.2009 232.871 42.1049 233.039C42.0149 233.207 41.9699 233.381 41.9699 233.561C41.9699 233.789 42.0599 233.978 42.2399 234.128C42.4199 234.278 42.7529 234.353 43.2389 234.353H44.9489C45.5849 234.353 46.1549 234.467 46.6589 234.695C47.1689 234.923 47.5679 235.229 47.8559 235.613C48.1499 235.997 48.2969 236.435 48.2969 236.927C48.2969 237.857 47.9009 238.571 47.1089 239.069C46.3229 239.567 45.2099 239.816 43.7699 239.816C42.7619 239.816 41.9669 239.711 41.3849 239.501C40.8029 239.297 40.3859 238.982 40.1339 238.556C39.8879 238.136 39.7649 237.605 39.7649 236.963H41.1329C41.1329 237.329 41.2049 237.632 41.3489 237.872C41.4929 238.112 41.7539 238.289 42.1319 238.403C42.5099 238.523 43.0529 238.583 43.7609 238.583C44.4569 238.583 45.0239 238.523 45.4619 238.403C45.9059 238.289 46.2329 238.115 46.4429 237.881C46.6589 237.653 46.7669 237.368 46.7669 237.026C46.7669 236.576 46.5629 236.237 46.1549 236.009C45.7469 235.781 45.2369 235.667 44.6249 235.667H42.9329C42.1169 235.667 41.5139 235.487 41.1239 235.127C40.7399 234.767 40.5479 234.353 40.5479 233.885C40.5479 233.579 40.6349 233.282 40.8089 232.994C40.9889 232.706 41.2499 232.451 41.5919 232.229C41.0459 231.941 40.6439 231.584 40.3859 231.158C40.1279 230.732 39.9989 230.216 39.9989 229.61C39.9989 228.968 40.1579 228.401 40.4759 227.909C40.7939 227.411 41.2379 227.021 41.8079 226.739C42.3779 226.457 43.0349 226.316 43.7789 226.316C44.5769 226.31 45.2249 226.277 45.7229 226.217C46.2209 226.151 46.6469 226.058 47.0009 225.938C47.3609 225.818 47.7269 225.677 48.0989 225.515ZM43.7789 227.423C43.0169 227.423 42.4529 227.63 42.0869 228.044C41.7269 228.452 41.5469 228.974 41.5469 229.61C41.5469 230.252 41.7329 230.78 42.1049 231.194C42.4769 231.608 43.0469 231.815 43.8149 231.815C44.4869 231.815 44.9969 231.62 45.3449 231.23C45.6989 230.84 45.8759 230.297 45.8759 229.601C45.8759 228.887 45.6989 228.347 45.3449 227.981C44.9969 227.609 44.4749 227.423 43.7789 227.423ZM59.1259 226.523L54.8599 230.789L59.6209 236H57.6319L52.9699 230.825L57.1639 226.523H59.1259ZM52.7989 222.518V236H51.2869V222.707L52.7989 222.518ZM68.7669 233.93C68.7669 234.308 68.8299 234.584 68.9559 234.758C69.0819 234.932 69.2769 235.061 69.5409 235.145L69.1719 236.207C68.7639 236.153 68.4069 236.024 68.1009 235.82C67.7949 235.61 67.5729 235.295 67.4349 234.875C67.0929 235.313 66.6669 235.646 66.1569 235.874C65.6469 236.096 65.0829 236.207 64.4649 236.207C63.5169 236.207 62.7699 235.94 62.2239 235.406C61.6779 234.872 61.4049 234.164 61.4049 233.282C61.4049 232.304 61.7859 231.554 62.5479 231.032C63.3099 230.51 64.4109 230.249 65.8509 230.249H67.2459V229.457C67.2459 228.773 67.0449 228.29 66.6429 228.008C66.2469 227.72 65.6949 227.576 64.9869 227.576C64.6749 227.576 64.3089 227.615 63.8889 227.693C63.4689 227.765 63.0129 227.888 62.5209 228.062L62.1249 226.919C62.7069 226.703 63.2529 226.55 63.7629 226.46C64.2729 226.37 64.7589 226.325 65.2209 226.325C66.4029 226.325 67.2879 226.601 67.8759 227.153C68.4699 227.699 68.7669 228.443 68.7669 229.385V233.93ZM64.8519 235.055C65.3199 235.055 65.7669 234.938 66.1929 234.704C66.6189 234.464 66.9699 234.134 67.2459 233.714V231.275H65.8779C64.8339 231.275 64.0959 231.455 63.6639 231.815C63.2379 232.175 63.0249 232.658 63.0249 233.264C63.0249 233.852 63.1749 234.299 63.4749 234.605C63.7809 234.905 64.2399 235.055 64.8519 235.055ZM106.656 238.079V221.321H111.165V222.626H108.087V236.792H111.165V238.079H106.656ZM130.33 233.039C130.744 233.039 131.089 233.18 131.365 233.462C131.647 233.744 131.788 234.083 131.788 234.479C131.788 234.695 131.761 234.914 131.707 235.136C131.659 235.358 131.569 235.61 131.437 235.892L129.979 239.231H128.611L129.475 235.676C129.295 235.544 129.151 235.373 129.043 235.163C128.941 234.947 128.89 234.719 128.89 234.479C128.89 234.077 129.028 233.738 129.304 233.462C129.58 233.18 129.922 233.039 130.33 233.039ZM151.916 233.039C152.33 233.039 152.675 233.18 152.951 233.462C153.233 233.744 153.374 234.083 153.374 234.479C153.374 234.695 153.347 234.914 153.293 235.136C153.245 235.358 153.155 235.61 153.023 235.892L151.565 239.231H150.197L151.061 235.676C150.881 235.544 150.737 235.373 150.629 235.163C150.527 234.947 150.476 234.719 150.476 234.479C150.476 234.077 150.614 233.738 150.89 233.462C151.166 233.18 151.508 233.039 151.916 233.039ZM173.502 233.039C173.916 233.039 174.261 233.18 174.537 233.462C174.819 233.744 174.96 234.083 174.96 234.479C174.96 234.695 174.933 234.914 174.879 235.136C174.831 235.358 174.741 235.61 174.609 235.892L173.151 239.231H171.783L172.647 235.676C172.467 235.544 172.323 235.373 172.215 235.163C172.113 234.947 172.062 234.719 172.062 234.479C172.062 234.077 172.2 233.738 172.476 233.462C172.752 233.18 173.094 233.039 173.502 233.039ZM197.176 221.321V238.079H192.667V236.801H195.745V222.626H192.667V221.321H197.176Z" fill="white"/>
<path d="M90.6588 228.044V229.349H83.6568V228.044H90.6588ZM90.6588 231.455V232.769H83.6568V231.455H90.6588ZM120.86 223.607V235.64H119.348V225.245L116.504 226.973L115.847 225.893L119.537 223.607H120.86ZM123.452 234.767V236H116.297V234.767H123.452ZM140.574 223.409C141.354 223.409 142.02 223.559 142.572 223.859C143.13 224.159 143.559 224.57 143.859 225.092C144.159 225.614 144.309 226.205 144.309 226.865C144.309 227.435 144.21 227.993 144.012 228.539C143.814 229.079 143.496 229.649 143.058 230.249C142.626 230.843 142.056 231.503 141.348 232.229C140.646 232.955 139.782 233.783 138.756 234.713H144.597L144.408 236H137.037V234.767C137.973 233.873 138.768 233.09 139.422 232.418C140.082 231.746 140.625 231.158 141.051 230.654C141.483 230.144 141.819 229.682 142.059 229.268C142.305 228.854 142.476 228.461 142.572 228.089C142.668 227.711 142.716 227.321 142.716 226.919C142.716 226.223 142.518 225.674 142.122 225.272C141.732 224.87 141.192 224.669 140.502 224.669C139.89 224.669 139.389 224.774 138.999 224.984C138.609 225.194 138.219 225.53 137.829 225.992L136.785 225.182C137.277 224.582 137.823 224.138 138.423 223.85C139.023 223.556 139.74 223.409 140.574 223.409ZM162.142 223.409C162.922 223.409 163.594 223.55 164.158 223.832C164.728 224.108 165.169 224.483 165.481 224.957C165.793 225.425 165.949 225.941 165.949 226.505C165.949 227.003 165.838 227.456 165.616 227.864C165.394 228.272 165.1 228.608 164.734 228.872C164.368 229.136 163.966 229.31 163.528 229.394C164.014 229.43 164.47 229.568 164.896 229.808C165.322 230.042 165.67 230.378 165.94 230.816C166.21 231.248 166.345 231.785 166.345 232.427C166.345 233.141 166.165 233.786 165.805 234.362C165.445 234.932 164.941 235.382 164.293 235.712C163.651 236.042 162.901 236.207 162.043 236.207C161.353 236.207 160.663 236.075 159.973 235.811C159.289 235.547 158.71 235.127 158.236 234.551L159.253 233.723C159.607 234.137 160.027 234.446 160.513 234.65C161.005 234.854 161.503 234.956 162.007 234.956C162.871 234.956 163.546 234.731 164.032 234.281C164.518 233.825 164.761 233.207 164.761 232.427C164.761 231.839 164.647 231.374 164.419 231.032C164.197 230.69 163.894 230.447 163.51 230.303C163.126 230.153 162.688 230.078 162.196 230.078H161.152L161.341 228.881H162.07C162.472 228.881 162.85 228.806 163.204 228.656C163.564 228.5 163.858 228.26 164.086 227.936C164.314 227.612 164.428 227.207 164.428 226.721C164.428 226.037 164.2 225.515 163.744 225.155C163.288 224.795 162.736 224.615 162.088 224.615C161.548 224.615 161.077 224.711 160.675 224.903C160.273 225.089 159.868 225.374 159.46 225.758L158.623 224.831C159.151 224.333 159.712 223.973 160.306 223.751C160.9 223.523 161.512 223.409 162.142 223.409ZM183.827 223.409L185.087 223.94L181.793 231.779H188.408V232.985H180.191V231.887L183.827 223.409ZM186.806 228.26V236H185.348L185.339 232.067L185.546 228.26H186.806Z" fill="#00E0E0"/>
<path d="M23.606 258.523V266.803H26.279V268H19.169V266.803H22.094V259.72H19.259V258.523H23.606ZM22.4 254.086C22.736 254.086 23.003 254.188 23.201 254.392C23.405 254.596 23.507 254.845 23.507 255.139C23.507 255.445 23.405 255.703 23.201 255.913C23.003 256.117 22.736 256.219 22.4 256.219C22.082 256.219 21.821 256.117 21.617 255.913C21.413 255.703 21.311 255.445 21.311 255.139C21.311 254.845 21.413 254.596 21.617 254.392C21.821 254.188 22.082 254.086 22.4 254.086ZM65.0049 255.409C65.7849 255.409 66.4569 255.55 67.0209 255.832C67.5909 256.108 68.0319 256.483 68.3439 256.957C68.6559 257.425 68.8119 257.941 68.8119 258.505C68.8119 259.003 68.7009 259.456 68.4789 259.864C68.2569 260.272 67.9629 260.608 67.5969 260.872C67.2309 261.136 66.8289 261.31 66.3909 261.394C66.8769 261.43 67.3329 261.568 67.7589 261.808C68.1849 262.042 68.5329 262.378 68.8029 262.816C69.0729 263.248 69.2079 263.785 69.2079 264.427C69.2079 265.141 69.0279 265.786 68.6679 266.362C68.3079 266.932 67.8039 267.382 67.1559 267.712C66.5139 268.042 65.7639 268.207 64.9059 268.207C64.2159 268.207 63.5259 268.075 62.8359 267.811C62.1519 267.547 61.5729 267.127 61.0989 266.551L62.1159 265.723C62.4699 266.137 62.8899 266.446 63.3759 266.65C63.8679 266.854 64.3659 266.956 64.8699 266.956C65.7339 266.956 66.4089 266.731 66.8949 266.281C67.3809 265.825 67.6239 265.207 67.6239 264.427C67.6239 263.839 67.5099 263.374 67.2819 263.032C67.0599 262.69 66.7569 262.447 66.3729 262.303C65.9889 262.153 65.5509 262.078 65.0589 262.078H64.0149L64.2039 260.881H64.9329C65.3349 260.881 65.7129 260.806 66.0669 260.656C66.4269 260.5 66.7209 260.26 66.9489 259.936C67.1769 259.612 67.2909 259.207 67.2909 258.721C67.2909 258.037 67.0629 257.515 66.6069 257.155C66.1509 256.795 65.5989 256.615 64.9509 256.615C64.4109 256.615 63.9399 256.711 63.5379 256.903C63.1359 257.089 62.7309 257.374 62.3229 257.758L61.4859 256.831C62.0139 256.333 62.5749 255.973 63.1689 255.751C63.7629 255.523 64.3749 255.409 65.0049 255.409Z" fill="white"/>
<path d="M47.4869 260.044V261.349H40.4849V260.044H47.4869ZM47.4869 263.455V264.769H40.4849V263.455H47.4869Z" fill="#00E0E0"/>
<path d="M132.676 93.2941C132.287 94.0251 132.563 94.9337 133.294 95.3235L145.206 101.676C145.937 102.066 146.845 101.79 147.235 101.059C147.625 100.328 147.349 99.4193 146.618 99.0294L136.029 93.3824L141.676 82.7941C142.066 82.0632 141.79 81.1546 141.059 80.7647C140.328 80.3749 139.419 80.6514 139.029 81.3824L132.676 93.2941ZM248.563 57.565L133.563 92.565L134.437 95.435L249.437 60.435L248.563 57.565Z" fill="#E22727"/>
<path d="M501.723 30.607V42.64H500.211V32.245L497.367 33.973L496.71 32.893L500.4 30.607H501.723ZM504.315 41.767V43H497.16V41.767H504.315Z" fill="white"/>
<path d="M499.851 61.409C500.631 61.409 501.297 61.559 501.849 61.859C502.407 62.159 502.836 62.57 503.136 63.092C503.436 63.614 503.586 64.205 503.586 64.865C503.586 65.435 503.487 65.993 503.289 66.539C503.091 67.079 502.773 67.649 502.335 68.249C501.903 68.843 501.333 69.503 500.625 70.229C499.923 70.955 499.059 71.783 498.033 72.713H503.874L503.685 74H496.314V72.767C497.25 71.873 498.045 71.09 498.699 70.418C499.359 69.746 499.902 69.158 500.328 68.654C500.76 68.144 501.096 67.682 501.336 67.268C501.582 66.854 501.753 66.461 501.849 66.089C501.945 65.711 501.993 65.321 501.993 64.919C501.993 64.223 501.795 63.674 501.399 63.272C501.009 62.87 500.469 62.669 499.779 62.669C499.167 62.669 498.666 62.774 498.276 62.984C497.886 63.194 497.496 63.53 497.106 63.992L496.062 63.182C496.554 62.582 497.1 62.138 497.7 61.85C498.3 61.556 499.017 61.409 499.851 61.409Z" fill="white"/>
</g>
<defs>
<clipPath id="clip0_23_109">
<rect width="700" height="300" fill="white"/>
</clipPath>
</defs>
</svg>
